G04*
G04 #@! TF.GenerationSoftware,Altium Limited,Altium Designer,19.0.10 (269)*
G04*
G04 Layer_Physical_Order=2*
G04 Layer_Color=16711680*
%FSLAX44Y44*%
%MOMM*%
G71*
G01*
G75*
%ADD14C,0.2540*%
%ADD15C,0.8999*%
%ADD65C,0.4050*%
%ADD67C,0.8200*%
%ADD68C,0.4050*%
%ADD69C,1.2192*%
%ADD70R,1.8691X1.8691*%
%ADD71R,1.8691X1.8691*%
%ADD72C,2.0000*%
%ADD73C,1.9500*%
%ADD74O,1.3200X3.1200*%
%ADD75C,3.4000*%
%ADD76C,0.8000*%
%ADD77C,1.9300*%
%ADD78C,0.9000*%
%ADD79C,1.2700*%
%ADD80C,0.8128*%
G36*
X1181500Y818000D02*
Y259000D01*
X477598D01*
X477308Y259957D01*
X477671Y260199D01*
X480442Y264347D01*
X481416Y269240D01*
X480442Y274133D01*
X477671Y278281D01*
X473523Y281052D01*
X468630Y282026D01*
X463737Y281052D01*
X459589Y278281D01*
X456818Y274133D01*
X455844Y269240D01*
X456818Y264347D01*
X459589Y260199D01*
X459952Y259957D01*
X459661Y259000D01*
X335099D01*
X334809Y259957D01*
X335172Y260199D01*
X337943Y264347D01*
X338917Y269240D01*
X337943Y274133D01*
X335172Y278281D01*
X331024Y281052D01*
X326131Y282026D01*
X321238Y281052D01*
X317090Y278281D01*
X314319Y274133D01*
X313345Y269240D01*
X314319Y264347D01*
X317090Y260199D01*
X317453Y259957D01*
X317162Y259000D01*
X251000D01*
X247248Y262752D01*
X246200Y825292D01*
X246906Y826000D01*
X1173500Y826000D01*
X1181500Y818000D01*
D02*
G37*
%LPC*%
G36*
X492000Y719441D02*
X429000D01*
X425506Y717994D01*
X361772Y654259D01*
X361000Y654579D01*
X355994Y652505D01*
X353921Y647500D01*
X355994Y642495D01*
X361000Y640421D01*
X366006Y642495D01*
X367436Y645948D01*
X431047Y709559D01*
X489953D01*
X501895Y697617D01*
X501328Y696769D01*
X498500Y697941D01*
X456000D01*
X452506Y696494D01*
X424006Y667994D01*
X422559Y664500D01*
Y640106D01*
X421578Y639911D01*
X421006Y641293D01*
X416000Y643366D01*
X410994Y641293D01*
X408921Y636288D01*
X410994Y631282D01*
X416000Y629209D01*
X421006Y631282D01*
X421578Y632665D01*
X422559Y632470D01*
Y630454D01*
X420921Y626500D01*
X422994Y621494D01*
X428000Y619421D01*
X431447Y620849D01*
X432013Y620001D01*
X418838Y606825D01*
X417857Y607021D01*
X416358Y610640D01*
X411352Y612713D01*
X406347Y610640D01*
X404273Y605634D01*
X406347Y600629D01*
X409966Y599130D01*
X410161Y598149D01*
X401553Y589541D01*
X332301D01*
X331610Y591210D01*
X325000Y593947D01*
X318390Y591210D01*
X315653Y584600D01*
X318390Y577990D01*
X320844Y576974D01*
X320649Y575993D01*
X312495D01*
X304541Y583947D01*
Y589999D01*
X306210Y590690D01*
X308948Y597300D01*
X306210Y603910D01*
X299600Y606647D01*
X292990Y603910D01*
X290252Y597300D01*
X292990Y590690D01*
X294659Y589999D01*
Y581900D01*
X296106Y578406D01*
X306954Y567558D01*
X310448Y566111D01*
X408052D01*
X411546Y567558D01*
X466364Y622376D01*
X482636D01*
X504710Y600302D01*
X506307Y596447D01*
X505735Y595447D01*
X481370D01*
X480579Y596000D01*
X478506Y601006D01*
X473500Y603079D01*
X468494Y601006D01*
X466421Y596000D01*
X468494Y590994D01*
X473500Y588921D01*
X473564Y588948D01*
X475500Y587012D01*
X478994Y585565D01*
X505669D01*
X506142Y584565D01*
X505836Y584191D01*
X464057D01*
X459500Y586079D01*
X454495Y584006D01*
X452421Y579000D01*
X454495Y573994D01*
X459500Y571921D01*
X464506Y573994D01*
X464636Y574309D01*
X506943D01*
X511500Y572421D01*
X516506Y574495D01*
X516578Y574670D01*
X517559Y574475D01*
Y564847D01*
X516578Y564652D01*
X516018Y566006D01*
X511012Y568079D01*
X506007Y566006D01*
X505151Y563941D01*
X463532D01*
X463506Y564006D01*
X458500Y566079D01*
X453494Y564006D01*
X451421Y559000D01*
X453494Y553994D01*
X458500Y551921D01*
X463506Y553994D01*
X463532Y554059D01*
X509012D01*
X509846Y554404D01*
X511012Y553921D01*
X516018Y555994D01*
X516578Y557348D01*
X517559Y557153D01*
Y551547D01*
X511564Y545552D01*
X511500Y545579D01*
X506494Y543506D01*
X504421Y538500D01*
X506494Y533494D01*
X511500Y531421D01*
X516506Y533494D01*
X518579Y538500D01*
X518552Y538564D01*
X524135Y544147D01*
X525059Y543764D01*
Y509500D01*
X526506Y506006D01*
X563059Y469453D01*
Y352000D01*
X564506Y348506D01*
X575958Y337054D01*
X575107Y335000D01*
Y317000D01*
X578005Y310005D01*
X585000Y307107D01*
X591995Y310005D01*
X594893Y317000D01*
Y333313D01*
X595817Y333695D01*
X596096Y333416D01*
X599590Y331969D01*
X600107D01*
Y317000D01*
X603005Y310005D01*
X610000Y307107D01*
X616995Y310005D01*
X619893Y317000D01*
Y335000D01*
X616995Y341996D01*
X610000Y344893D01*
X603005Y341996D01*
X602945Y341851D01*
X601637D01*
X583941Y359547D01*
Y475500D01*
X582770Y478328D01*
X583617Y478895D01*
X585059Y477453D01*
Y379500D01*
X586506Y376006D01*
X625811Y336701D01*
X625107Y335000D01*
Y317000D01*
X628005Y310005D01*
X635000Y307107D01*
X641995Y310005D01*
X644893Y317000D01*
Y335000D01*
X641995Y341996D01*
X635000Y344893D01*
X632592Y343896D01*
X594941Y381547D01*
Y479500D01*
X593494Y482994D01*
X555441Y521047D01*
Y624000D01*
X553994Y627494D01*
X494494Y686994D01*
X494291Y687078D01*
X494486Y688059D01*
X496453D01*
X557059Y627453D01*
Y524500D01*
X558506Y521006D01*
X623506Y456006D01*
X627000Y454559D01*
X937953D01*
X947684Y444828D01*
X947118Y443980D01*
X942500Y445893D01*
X935505Y442995D01*
X932607Y436000D01*
Y418000D01*
X935505Y411005D01*
X937059Y410361D01*
Y364047D01*
X881453Y308441D01*
X760576D01*
X759804Y310304D01*
X753000Y313123D01*
X746196Y310304D01*
X743378Y303500D01*
X746196Y296696D01*
X753000Y293878D01*
X759804Y296696D01*
X760576Y298559D01*
X883500D01*
X883500Y298559D01*
X886994Y300006D01*
X945494Y358506D01*
X946941Y362000D01*
X946941Y362000D01*
Y409947D01*
X949495Y411005D01*
X952393Y418000D01*
Y436000D01*
X950480Y440618D01*
X951328Y441184D01*
X961506Y431006D01*
X965000Y429559D01*
X1102453D01*
X1119559Y412453D01*
Y409032D01*
X1119494Y409006D01*
X1117421Y404000D01*
X1119494Y398994D01*
X1124500Y396921D01*
X1129505Y398994D01*
X1131579Y404000D01*
X1129505Y409006D01*
X1129441Y409032D01*
Y414500D01*
X1127994Y417994D01*
X1107994Y437994D01*
X1104500Y439441D01*
X967047D01*
X943494Y462994D01*
X940000Y464441D01*
X629047D01*
X585920Y507568D01*
X586115Y508549D01*
X589888Y510112D01*
X592120Y515500D01*
X589888Y520888D01*
X584500Y523120D01*
X579112Y520888D01*
X577549Y517115D01*
X576568Y516920D01*
X566941Y526547D01*
Y629500D01*
X565770Y632328D01*
X566617Y632895D01*
X595506Y604006D01*
X599000Y602559D01*
X728453D01*
X816064Y514948D01*
X817495Y511494D01*
X822500Y509421D01*
X827505Y511494D01*
X829579Y516500D01*
X827505Y521506D01*
X822500Y523579D01*
X821729Y523259D01*
X733994Y610994D01*
X730500Y612441D01*
X601047D01*
X495494Y717994D01*
X492000Y719441D01*
D02*
G37*
G36*
X325000Y644747D02*
X318390Y642010D01*
X315653Y635400D01*
X318390Y628790D01*
X325000Y626053D01*
X331610Y628790D01*
X334347Y635400D01*
X331610Y642010D01*
X325000Y644747D01*
D02*
G37*
G36*
X299600Y632048D02*
X292990Y629310D01*
X290252Y622700D01*
X292990Y616090D01*
X299600Y613353D01*
X306210Y616090D01*
X308948Y622700D01*
X306210Y629310D01*
X299600Y632048D01*
D02*
G37*
G36*
X398000Y624982D02*
X392994Y622908D01*
X390921Y617903D01*
X392994Y612897D01*
X398000Y610824D01*
X403005Y612897D01*
X405079Y617903D01*
X403005Y622908D01*
X398000Y624982D01*
D02*
G37*
G36*
X503000Y745441D02*
X411500D01*
X408006Y743994D01*
X364064Y700052D01*
X364000Y700079D01*
X358994Y698006D01*
X356921Y693000D01*
X358994Y687995D01*
X364000Y685921D01*
X369006Y687995D01*
X371079Y693000D01*
X371052Y693064D01*
X413547Y735559D01*
X500953D01*
X607506Y629006D01*
X611000Y627559D01*
X745953D01*
X839006Y534506D01*
X842500Y533059D01*
X893889D01*
X894084Y532078D01*
X891495Y531006D01*
X891468Y530941D01*
X834547D01*
X740494Y624994D01*
X737000Y626441D01*
X603547D01*
X499546Y730442D01*
X496052Y731889D01*
X421948D01*
X418454Y730442D01*
X364064Y676052D01*
X364000Y676079D01*
X358994Y674006D01*
X356921Y669000D01*
X358994Y663995D01*
X364000Y661921D01*
X369006Y663995D01*
X371079Y669000D01*
X371052Y669064D01*
X423995Y722007D01*
X494005D01*
X598006Y618006D01*
X601500Y616559D01*
X734953D01*
X829006Y522506D01*
X832500Y521059D01*
X891468D01*
X891495Y520994D01*
X896500Y518921D01*
X901506Y520994D01*
X903579Y526000D01*
X901506Y531006D01*
X898916Y532078D01*
X899111Y533059D01*
X962468D01*
X962495Y532994D01*
X967500Y530921D01*
X972505Y532994D01*
X974579Y538000D01*
X972505Y543005D01*
X967500Y545079D01*
X962495Y543005D01*
X962468Y542941D01*
X844547D01*
X751494Y635994D01*
X748000Y637441D01*
X613047D01*
X506494Y743994D01*
X503000Y745441D01*
D02*
G37*
G36*
X620000Y523120D02*
X614612Y520888D01*
X612380Y515500D01*
X614612Y510112D01*
X620000Y507880D01*
X625388Y510112D01*
X627620Y515500D01*
X625388Y520888D01*
X620000Y523120D01*
D02*
G37*
G36*
X601399D02*
X596011Y520888D01*
X593779Y515500D01*
X596011Y510112D01*
X601399Y507880D01*
X606788Y510112D01*
X609020Y515500D01*
X606788Y520888D01*
X601399Y523120D01*
D02*
G37*
G36*
X448000Y548395D02*
X442994Y546322D01*
X440921Y541316D01*
X442994Y536311D01*
X448000Y534237D01*
X448064Y534264D01*
X477340Y504988D01*
X478994Y500994D01*
X484000Y498921D01*
X489006Y500994D01*
X491079Y506000D01*
X489006Y511006D01*
X484000Y513079D01*
X483452Y512852D01*
X455052Y541252D01*
X455079Y541316D01*
X453005Y546322D01*
X448000Y548395D01*
D02*
G37*
G36*
X1091886Y518186D02*
X1068114D01*
Y494414D01*
X1091886D01*
Y518186D01*
D02*
G37*
G36*
X1015686D02*
X991915D01*
Y494414D01*
X1015686D01*
Y518186D01*
D02*
G37*
G36*
X793500Y491079D02*
X788494Y489006D01*
X786421Y484000D01*
X788494Y478994D01*
X793500Y476921D01*
X798057Y478809D01*
X860364D01*
X860495Y478494D01*
X865500Y476421D01*
X870506Y478494D01*
X872579Y483500D01*
X870506Y488506D01*
X865500Y490579D01*
X860943Y488691D01*
X798636D01*
X798505Y489006D01*
X793500Y491079D01*
D02*
G37*
G36*
X540500Y479929D02*
X535744Y478983D01*
X531712Y476288D01*
X529017Y472256D01*
X528071Y467500D01*
X528447Y465611D01*
X448918Y386082D01*
X446813Y381000D01*
Y334977D01*
X411523Y299687D01*
X305077D01*
X288370Y316394D01*
X286210Y321610D01*
X279600Y324347D01*
X272990Y321610D01*
X270252Y315000D01*
X272990Y308390D01*
X278206Y306230D01*
X297018Y287418D01*
X302100Y285313D01*
X414500D01*
X419582Y287418D01*
X459082Y326918D01*
X461187Y332000D01*
Y378023D01*
X538611Y455447D01*
X540500Y455071D01*
X545256Y456017D01*
X549288Y458712D01*
X551983Y462744D01*
X552929Y467500D01*
X551983Y472256D01*
X549288Y476288D01*
X545256Y478983D01*
X540500Y479929D01*
D02*
G37*
G36*
X1091886Y467385D02*
X1068114D01*
Y443615D01*
X1091886D01*
Y467385D01*
D02*
G37*
G36*
X1015686D02*
X991915D01*
Y443615D01*
X1015686D01*
Y467385D01*
D02*
G37*
G36*
X917500Y445893D02*
X910505Y442995D01*
X907607Y436000D01*
Y418000D01*
X910505Y411005D01*
X917500Y408107D01*
X924495Y411005D01*
X927393Y418000D01*
Y436000D01*
X924495Y442995D01*
X917500Y445893D01*
D02*
G37*
G36*
X892500D02*
X885505Y442995D01*
X882607Y436000D01*
Y418000D01*
X885505Y411005D01*
X892500Y408107D01*
X899495Y411005D01*
X902393Y418000D01*
Y436000D01*
X899495Y442995D01*
X892500Y445893D01*
D02*
G37*
G36*
X867500D02*
X860505Y442995D01*
X857607Y436000D01*
Y418000D01*
X860505Y411005D01*
X867500Y408107D01*
X874495Y411005D01*
X877393Y418000D01*
Y436000D01*
X874495Y442995D01*
X867500Y445893D01*
D02*
G37*
G36*
X842500D02*
X835505Y442995D01*
X832607Y436000D01*
Y418000D01*
X835505Y411005D01*
X842500Y408107D01*
X849495Y411005D01*
X852393Y418000D01*
Y436000D01*
X849495Y442995D01*
X842500Y445893D01*
D02*
G37*
G36*
X817500D02*
X810505Y442995D01*
X807607Y436000D01*
Y418000D01*
X810505Y411005D01*
X817500Y408107D01*
X824495Y411005D01*
X827393Y418000D01*
Y436000D01*
X824495Y442995D01*
X817500Y445893D01*
D02*
G37*
G36*
X792500D02*
X785505Y442995D01*
X782607Y436000D01*
Y418000D01*
X785505Y411005D01*
X792500Y408107D01*
X799495Y411005D01*
X802393Y418000D01*
Y436000D01*
X799495Y442995D01*
X792500Y445893D01*
D02*
G37*
G36*
X767500D02*
X760505Y442995D01*
X757607Y436000D01*
Y418000D01*
X760505Y411005D01*
X767500Y408107D01*
X774495Y411005D01*
X777393Y418000D01*
Y436000D01*
X774495Y442995D01*
X767500Y445893D01*
D02*
G37*
G36*
X1091886Y416586D02*
X1068114D01*
Y392814D01*
X1091886D01*
Y416586D01*
D02*
G37*
G36*
X1015686D02*
X991915D01*
Y392814D01*
X1015686D01*
Y416586D01*
D02*
G37*
G36*
X397380Y383772D02*
X392585Y382818D01*
X388520Y380102D01*
X385901Y376182D01*
X359062D01*
Y376393D01*
X347371Y374068D01*
X337459Y367445D01*
X337608Y367296D01*
X319369Y349056D01*
X317700Y349748D01*
X311090Y347010D01*
X308353Y340400D01*
X311090Y333790D01*
X317700Y331053D01*
X324310Y333790D01*
X327048Y340400D01*
X326356Y342069D01*
X344596Y360308D01*
X344762Y360142D01*
X351323Y364525D01*
X359062Y366065D01*
Y366300D01*
X385901D01*
X388520Y362381D01*
X392585Y359665D01*
X394716Y359241D01*
Y358241D01*
X392585Y357817D01*
X388520Y355101D01*
X385804Y351035D01*
X384850Y346240D01*
X385770Y341617D01*
X376086Y331933D01*
X375920Y332100D01*
X369358Y327716D01*
X361619Y326176D01*
Y325941D01*
X322221D01*
Y326176D01*
X314482Y327716D01*
X307921Y332100D01*
X307754Y331933D01*
X300956Y338731D01*
X301647Y340400D01*
X298910Y347010D01*
X292300Y349748D01*
X285690Y347010D01*
X282952Y340400D01*
X285690Y333790D01*
X292300Y331053D01*
X293969Y331744D01*
X300767Y324946D01*
X300618Y324796D01*
X310529Y318174D01*
X322221Y315848D01*
Y316059D01*
X361619D01*
Y315848D01*
X373311Y318174D01*
X383223Y324796D01*
X383074Y324946D01*
X385485Y327356D01*
X386261Y326719D01*
X385804Y326034D01*
X384850Y321239D01*
X385804Y316444D01*
X388520Y312378D01*
X392585Y309662D01*
X397380Y308708D01*
X402176Y309662D01*
X406241Y312378D01*
X408957Y316444D01*
X409911Y321239D01*
X408957Y326034D01*
X406241Y330099D01*
X402176Y332816D01*
X400045Y333240D01*
Y334240D01*
X402176Y334663D01*
X406241Y337380D01*
X408957Y341445D01*
X409911Y346240D01*
X408957Y351035D01*
X406241Y355101D01*
X402176Y357817D01*
X400045Y358241D01*
Y359241D01*
X402176Y359665D01*
X406241Y362381D01*
X408957Y366446D01*
X409911Y371241D01*
X408957Y376037D01*
X406241Y380102D01*
X402176Y382818D01*
X397380Y383772D01*
D02*
G37*
G36*
X1091886Y340386D02*
X1068114D01*
Y316614D01*
X1091886D01*
Y340386D01*
D02*
G37*
G36*
X560000Y344893D02*
X553005Y341996D01*
X550107Y335000D01*
Y317000D01*
X553005Y310005D01*
X560000Y307107D01*
X566995Y310005D01*
X569893Y317000D01*
Y335000D01*
X566995Y341996D01*
X560000Y344893D01*
D02*
G37*
G36*
X535000D02*
X528005Y341996D01*
X525107Y335000D01*
Y317000D01*
X528005Y310005D01*
X535000Y307107D01*
X541995Y310005D01*
X544893Y317000D01*
Y335000D01*
X541995Y341996D01*
X535000Y344893D01*
D02*
G37*
G36*
X510000D02*
X503005Y341996D01*
X500107Y335000D01*
Y317000D01*
X503005Y310005D01*
X510000Y307107D01*
X516995Y310005D01*
X519893Y317000D01*
Y335000D01*
X516995Y341996D01*
X510000Y344893D01*
D02*
G37*
G36*
X1015686Y340386D02*
X991915D01*
Y316614D01*
X996652D01*
Y302261D01*
X981539Y287148D01*
X507385D01*
X506288Y288789D01*
X502256Y291483D01*
X497500Y292429D01*
X492744Y291483D01*
X488712Y288789D01*
X486017Y284756D01*
X485071Y280000D01*
X486017Y275244D01*
X488712Y271211D01*
X492744Y268517D01*
X497500Y267571D01*
X502256Y268517D01*
X506288Y271211D01*
X507385Y272852D01*
X984500D01*
X989555Y274946D01*
X1008855Y294245D01*
X1010948Y299300D01*
Y316614D01*
X1015686D01*
Y340386D01*
D02*
G37*
%LPD*%
G36*
X499852Y621660D02*
X500637Y619765D01*
X499789Y619199D01*
X488994Y629994D01*
X485500Y631441D01*
X483527Y630624D01*
X465473D01*
X463500Y631441D01*
X460006Y629994D01*
X406005Y575993D01*
X329351D01*
X329156Y576974D01*
X331610Y577990D01*
X332301Y579659D01*
X403600D01*
X407094Y581106D01*
X468047Y642059D01*
X479453D01*
X499852Y621660D01*
D02*
G37*
D14*
X793500Y484000D02*
X793750Y483750D01*
X865250D02*
X865500Y483500D01*
X428000Y626500D02*
Y629000D01*
X427500Y629500D02*
X428000Y629000D01*
X511000Y601000D02*
X511500D01*
X463500Y626500D02*
X485500D01*
X457000Y650500D02*
Y651000D01*
X635000Y326000D02*
Y334500D01*
X605076Y336910D02*
X610000Y331986D01*
X457000Y651000D02*
X457500Y651500D01*
X585000Y326000D02*
Y335000D01*
X942000Y426500D02*
X942500Y427000D01*
D15*
X1080000Y404700D02*
D03*
Y455500D02*
D03*
Y506300D02*
D03*
D65*
X359062Y371241D02*
G03*
X341102Y363802I0J-25400D01*
G01*
X304261Y328439D02*
G03*
X322221Y321000I17960J17960D01*
G01*
X361619D02*
G03*
X379580Y328439I0J25400D01*
G01*
X397380Y346240D01*
X359062Y371241D02*
X397380D01*
X317700Y340400D02*
X341102Y363802D01*
X292300Y340400D02*
X304261Y328439D01*
X322221Y321000D02*
X361619D01*
X448000Y541316D02*
X483316Y506000D01*
X484000D01*
X842500Y538000D02*
X967500D01*
X364000Y693000D02*
X411500Y740500D01*
X503000D01*
X611000Y632500D01*
X748000D01*
X842500Y538000D01*
X793750Y483750D02*
X865250D01*
X511250Y579250D02*
X511500Y579500D01*
X459750Y579250D02*
X511250D01*
X459500Y579000D02*
X459750Y579250D01*
X458500Y559000D02*
X509012D01*
X511012Y561000D01*
X473500Y596000D02*
X478994Y590506D01*
X517006D01*
X522500Y585012D01*
Y549500D02*
Y585012D01*
X511500Y538500D02*
X522500Y549500D01*
X484000Y661500D02*
X530000Y615500D01*
X470886Y661500D02*
X484000D01*
X530000Y509500D02*
Y615500D01*
X627000Y459500D02*
X940000D01*
X965000Y434500D01*
X562000Y524500D02*
X627000Y459500D01*
X364000Y669000D02*
X421948Y726948D01*
X496052D01*
X601500Y621500D01*
X737000D01*
X832500Y526000D01*
X896500D01*
X730500Y607500D02*
X821500Y516500D01*
X822500D01*
X562000Y524500D02*
Y629500D01*
X498500Y693000D02*
X562000Y629500D01*
X456000Y693000D02*
X498500D01*
X362000Y647500D02*
X429000Y714500D01*
X492000D01*
X599000Y607500D01*
X730500D01*
X485500Y626500D02*
X511000Y601000D01*
X408052Y571052D02*
X463500Y626500D01*
X310448Y571052D02*
X408052D01*
X299600Y581900D02*
X310448Y571052D01*
X299600Y581900D02*
Y597300D01*
X481500Y647000D02*
X505800Y622700D01*
X466000Y647000D02*
X481500D01*
X403600Y584600D02*
X466000Y647000D01*
X325000Y584600D02*
X403600D01*
X1104500Y434500D02*
X1124500Y414500D01*
X965000Y434500D02*
X1104500D01*
X1124500Y404000D02*
Y414500D01*
X427500Y629500D02*
Y664500D01*
X456000Y693000D01*
X444500Y639000D02*
Y663500D01*
X464500Y683500D01*
X491000D01*
X550500Y624000D01*
Y519000D02*
Y624000D01*
Y519000D02*
X590000Y479500D01*
Y379500D02*
Y479500D01*
Y379500D02*
X635000Y334500D01*
X597400Y339100D02*
X599590Y336910D01*
X605076D01*
X610000Y326000D02*
Y331986D01*
X530000Y509500D02*
X568000Y471500D01*
Y352000D02*
Y471500D01*
X457500Y651500D02*
Y660822D01*
X468178Y671500D01*
X489000D01*
X540000Y620500D01*
Y514500D02*
Y620500D01*
Y514500D02*
X579000Y475500D01*
Y357500D02*
Y475500D01*
Y357500D02*
X597400Y339100D01*
X568000Y352000D02*
X585000Y335000D01*
D67*
X454000Y332000D02*
Y381000D01*
X414500Y292500D02*
X454000Y332000D01*
X302100Y292500D02*
X414500D01*
X279600Y315000D02*
X302100Y292500D01*
X454000Y381000D02*
X540500Y467500D01*
D68*
X942000Y362000D02*
Y426500D01*
X883500Y303500D02*
X942000Y362000D01*
X753000Y303500D02*
X883500D01*
D69*
X279600Y315000D02*
D03*
X292300Y340400D02*
D03*
X305000Y315000D02*
D03*
X317700Y340400D02*
D03*
X299600Y648100D02*
D03*
X325000Y635400D02*
D03*
X299600Y622700D02*
D03*
X325000Y610000D02*
D03*
X299600Y597300D02*
D03*
X325000Y584600D02*
D03*
D70*
X1080000Y506300D02*
D03*
Y455500D02*
D03*
Y404700D02*
D03*
Y328500D02*
D03*
X1003800Y506300D02*
D03*
Y455500D02*
D03*
Y404700D02*
D03*
D71*
Y328500D02*
D03*
D72*
X326131Y269240D02*
D03*
X468630D02*
D03*
D73*
X372379Y346240D02*
D03*
X397380Y321239D02*
D03*
X422382Y346240D02*
D03*
X397380Y371241D02*
D03*
Y346240D02*
D03*
D74*
X942500Y427000D02*
D03*
X917500D02*
D03*
X892500D02*
D03*
X817500D02*
D03*
X842500D02*
D03*
X867500D02*
D03*
X792500D02*
D03*
X767500D02*
D03*
X510000Y326000D02*
D03*
X535000D02*
D03*
X560000D02*
D03*
X635000D02*
D03*
X610000D02*
D03*
X585000D02*
D03*
X660000D02*
D03*
X685000D02*
D03*
X710000D02*
D03*
D75*
X294500Y778500D02*
D03*
X1135000D02*
D03*
D76*
X484000Y506000D02*
D03*
X865500Y483500D02*
D03*
X793500Y484000D02*
D03*
X448000Y541316D02*
D03*
X458500Y559000D02*
D03*
X459500Y579000D02*
D03*
X443500Y753500D02*
D03*
X351500Y704000D02*
D03*
X369500Y555000D02*
D03*
X1105500Y324500D02*
D03*
X965500Y353000D02*
D03*
X860000Y351500D02*
D03*
X1116000Y661500D02*
D03*
X1056000Y661500D02*
D03*
X996000Y663000D02*
D03*
X936000D02*
D03*
X876000D02*
D03*
X794000Y760000D02*
D03*
X748500D02*
D03*
X473500Y596000D02*
D03*
X428000Y626500D02*
D03*
X416000Y636288D02*
D03*
X398000Y617903D02*
D03*
X411352Y605634D02*
D03*
X511500Y538500D02*
D03*
X364000Y693000D02*
D03*
X967500Y538000D02*
D03*
X364000Y669000D02*
D03*
X361000Y647500D02*
D03*
X896500Y526000D02*
D03*
X822500Y516500D02*
D03*
X511012Y561000D02*
D03*
X511500Y579500D02*
D03*
Y601000D02*
D03*
X506500Y622700D02*
D03*
X457000Y650500D02*
D03*
X1124500Y404000D02*
D03*
X444500Y639000D02*
D03*
X470886Y661500D02*
D03*
D77*
X342500Y424500D02*
D03*
X540500Y467500D02*
D03*
X497500Y280000D02*
D03*
D78*
X620000Y515500D02*
D03*
X601399D02*
D03*
X584500D02*
D03*
D79*
X616000Y536000D02*
D03*
X602000Y555000D02*
D03*
X587500Y536000D02*
D03*
X616000Y573500D02*
D03*
X587500D02*
D03*
X753000Y303500D02*
D03*
D80*
X497500Y280000D02*
X984500D01*
X1003800Y299300D01*
Y328500D01*
M02*
