G04*
G04 #@! TF.GenerationSoftware,Altium Limited,Altium Designer,19.0.10 (269)*
G04*
G04 Layer_Color=255*
%FSLAX44Y44*%
%MOMM*%
G71*
G01*
G75*
%ADD15C,0.8999*%
%ADD69C,1.2192*%
%ADD70R,1.8691X1.8691*%
%ADD71R,1.8691X1.8691*%
%ADD72C,2.0000*%
%ADD73C,1.9500*%
%ADD74O,1.3200X3.1200*%
D15*
X1080000Y404700D02*
D03*
Y455500D02*
D03*
Y506300D02*
D03*
D69*
X279600Y315000D02*
D03*
X292300Y340400D02*
D03*
X305000Y315000D02*
D03*
X317700Y340400D02*
D03*
X299600Y648100D02*
D03*
X325000Y635400D02*
D03*
X299600Y622700D02*
D03*
X325000Y610000D02*
D03*
X299600Y597300D02*
D03*
X325000Y584600D02*
D03*
D70*
X1080000Y506300D02*
D03*
Y455500D02*
D03*
Y404700D02*
D03*
Y328500D02*
D03*
X1003800Y506300D02*
D03*
Y455500D02*
D03*
Y404700D02*
D03*
D71*
Y328500D02*
D03*
D72*
X326131Y269240D02*
D03*
X468630D02*
D03*
D73*
X372379Y346240D02*
D03*
X397380Y321239D02*
D03*
X422382Y346240D02*
D03*
X397380Y371241D02*
D03*
Y346240D02*
D03*
D74*
X942500Y427000D02*
D03*
X917500D02*
D03*
X892500D02*
D03*
X817500D02*
D03*
X842500D02*
D03*
X867500D02*
D03*
X792500D02*
D03*
X767500D02*
D03*
X510000Y326000D02*
D03*
X535000D02*
D03*
X560000D02*
D03*
X635000D02*
D03*
X610000D02*
D03*
X585000D02*
D03*
X660000D02*
D03*
X685000D02*
D03*
X710000D02*
D03*
M02*
