G04*
G04 #@! TF.GenerationSoftware,Altium Limited,Altium Designer,19.0.10 (269)*
G04*
G04 Layer_Color=16711935*
%FSLAX44Y44*%
%MOMM*%
G71*
G01*
G75*
%ADD53C,1.4224*%
%ADD54C,1.1031*%
%ADD55R,2.0723X2.0723*%
%ADD56R,2.0723X2.0723*%
%ADD57C,2.2032*%
%ADD58C,2.1532*%
%ADD59O,1.5232X3.3232*%
%ADD60C,3.6032*%
%ADD61C,1.0032*%
%ADD62C,2.1332*%
%ADD63C,1.1032*%
%ADD64C,1.4732*%
D53*
X279600Y315000D02*
D03*
X292300Y340400D02*
D03*
X305000Y315000D02*
D03*
X317700Y340400D02*
D03*
X299600Y648100D02*
D03*
X325000Y635400D02*
D03*
X299600Y622700D02*
D03*
X325000Y610000D02*
D03*
X299600Y597300D02*
D03*
X325000Y584600D02*
D03*
D54*
X1080000Y404700D02*
D03*
Y455500D02*
D03*
Y506300D02*
D03*
D55*
D03*
Y455500D02*
D03*
Y404700D02*
D03*
Y328500D02*
D03*
X1003800Y506300D02*
D03*
Y455500D02*
D03*
Y404700D02*
D03*
D56*
Y328500D02*
D03*
D57*
X326131Y269240D02*
D03*
X468630D02*
D03*
D58*
X372379Y346240D02*
D03*
X397380Y321239D02*
D03*
X422382Y346240D02*
D03*
X397380Y371241D02*
D03*
Y346240D02*
D03*
D59*
X942500Y427000D02*
D03*
X917500D02*
D03*
X892500D02*
D03*
X817500D02*
D03*
X842500D02*
D03*
X867500D02*
D03*
X792500D02*
D03*
X767500D02*
D03*
X510000Y326000D02*
D03*
X535000D02*
D03*
X560000D02*
D03*
X635000D02*
D03*
X610000D02*
D03*
X585000D02*
D03*
X660000D02*
D03*
X685000D02*
D03*
X710000D02*
D03*
D60*
X294500Y778500D02*
D03*
X1135000D02*
D03*
D61*
X484000Y506000D02*
D03*
X865500Y483500D02*
D03*
X793500Y484000D02*
D03*
X448000Y541316D02*
D03*
X458500Y559000D02*
D03*
X459500Y579000D02*
D03*
X443500Y753500D02*
D03*
X351500Y704000D02*
D03*
X369500Y555000D02*
D03*
X1105500Y324500D02*
D03*
X965500Y353000D02*
D03*
X860000Y351500D02*
D03*
X1116000Y661500D02*
D03*
X1056000Y661500D02*
D03*
X996000Y663000D02*
D03*
X936000D02*
D03*
X876000D02*
D03*
X794000Y760000D02*
D03*
X748500D02*
D03*
X473500Y596000D02*
D03*
X428000Y626500D02*
D03*
X416000Y636288D02*
D03*
X398000Y617903D02*
D03*
X411352Y605634D02*
D03*
X511500Y538500D02*
D03*
X364000Y693000D02*
D03*
X967500Y538000D02*
D03*
X364000Y669000D02*
D03*
X361000Y647500D02*
D03*
X896500Y526000D02*
D03*
X822500Y516500D02*
D03*
X511012Y561000D02*
D03*
X511500Y579500D02*
D03*
Y601000D02*
D03*
X506500Y622700D02*
D03*
X457000Y650500D02*
D03*
X1124500Y404000D02*
D03*
X444500Y639000D02*
D03*
X470886Y661500D02*
D03*
D62*
X342500Y424500D02*
D03*
X540500Y467500D02*
D03*
X497500Y280000D02*
D03*
D63*
X620000Y515500D02*
D03*
X601399D02*
D03*
X584500D02*
D03*
D64*
X616000Y536000D02*
D03*
X602000Y555000D02*
D03*
X587500Y536000D02*
D03*
X616000Y573500D02*
D03*
X587500D02*
D03*
X753000Y303500D02*
D03*
M02*
