G04*
G04 #@! TF.GenerationSoftware,Altium Limited,Altium Designer,19.0.10 (269)*
G04*
G04 Layer_Color=16711935*
%FSLAX44Y44*%
%MOMM*%
G71*
G01*
G75*
%ADD13C,0.1270*%
%ADD83C,0.2032*%
%ADD84C,0.1016*%
%ADD85C,0.1000*%
%ADD86C,0.1524*%
D13*
X490883Y391490D02*
X501490Y380883D01*
X524117Y403510D01*
X513510Y414117D02*
X524117Y403510D01*
X490883Y391490D02*
X513510Y414117D01*
X490883Y391490D02*
X501490Y380883D01*
X524117Y403510D01*
X513510Y414117D02*
X524117Y403510D01*
X490883Y391490D02*
X513510Y414117D01*
X446727Y324490D02*
X459455Y311762D01*
X484203Y336510D01*
X471476Y349238D02*
X484203Y336510D01*
X446727Y324490D02*
X471476Y349238D01*
X446727Y324490D02*
X459455Y311762D01*
X484203Y336510D01*
X471476Y349238D02*
X484203Y336510D01*
X446727Y324490D02*
X471476Y349238D01*
X1048000Y286000D02*
X1080000D01*
X1048000D02*
Y301000D01*
X1080000D01*
Y286000D02*
Y301000D01*
X1048000Y286000D02*
X1080000D01*
X1048000D02*
Y301000D01*
X1080000D01*
Y286000D02*
Y301000D01*
D83*
X575003Y698289D02*
X596711Y719997D01*
X607997Y708711D01*
X586289Y687003D02*
X607997Y708711D01*
X575003Y698289D02*
X586289Y687003D01*
X575003Y698289D02*
X596711Y719997D01*
X607997Y708711D01*
X586289Y687003D02*
X607997Y708711D01*
X575003Y698289D02*
X586289Y687003D01*
X801980Y709650D02*
Y740350D01*
X786020Y709650D02*
X801980D01*
X786020D02*
Y740350D01*
X801980D01*
Y709650D02*
Y740350D01*
X786020Y709650D02*
X801980D01*
X786020D02*
Y740350D01*
X801980D01*
X859020Y336650D02*
Y367350D01*
X874980D01*
Y336650D02*
Y367350D01*
X859020Y336650D02*
X874980D01*
X859020D02*
Y367350D01*
X874980D01*
Y336650D02*
Y367350D01*
X859020Y336650D02*
X874980D01*
X588503Y378475D02*
X610211Y400183D01*
X621497Y388898D01*
X599789Y367189D02*
X621497Y388898D01*
X588503Y378475D02*
X599789Y367189D01*
X588503Y378475D02*
X610211Y400183D01*
X621497Y388898D01*
X599789Y367189D02*
X621497Y388898D01*
X588503Y378475D02*
X599789Y367189D01*
X552289Y376003D02*
X573997Y397711D01*
X541003Y387289D02*
X552289Y376003D01*
X541003Y387289D02*
X562711Y408997D01*
X573997Y397711D01*
X552289Y376003D02*
X573997Y397711D01*
X541003Y387289D02*
X552289Y376003D01*
X541003Y387289D02*
X562711Y408997D01*
X573997Y397711D01*
D84*
X383537Y519112D02*
X397184Y532759D01*
X372407Y530241D02*
X386054Y543889D01*
X383537Y519112D02*
X397184Y532759D01*
X372407Y530241D02*
X386054Y543889D01*
X400611Y501241D02*
X414259Y514888D01*
X411741Y490112D02*
X425389Y503759D01*
X400611Y501241D02*
X414259Y514888D01*
X411741Y490112D02*
X425389Y503759D01*
X966741Y585611D02*
X980388Y599259D01*
X955611Y596741D02*
X969259Y610388D01*
X966741Y585611D02*
X980388Y599259D01*
X955611Y596741D02*
X969259Y610388D01*
X666350Y290370D02*
X685650D01*
X666350Y274630D02*
X685650D01*
X666350Y290370D02*
X685650D01*
X666350Y274630D02*
X685650D01*
X601350Y290370D02*
X620650D01*
X601350Y274630D02*
X620650D01*
X601350Y290370D02*
X620650D01*
X601350Y274630D02*
X620650D01*
X536350Y290370D02*
X555650D01*
X536350Y274630D02*
X555650D01*
X536350Y290370D02*
X555650D01*
X536350Y274630D02*
X555650D01*
X654630Y430001D02*
Y449301D01*
X670370Y430001D02*
Y449301D01*
X654630Y430001D02*
Y449301D01*
X670370Y430001D02*
Y449301D01*
X1132370Y346850D02*
Y366150D01*
X1116630Y346850D02*
Y366150D01*
X1132370Y346850D02*
Y366150D01*
X1116630Y346850D02*
Y366150D01*
X895611Y596741D02*
X909259Y610388D01*
X906741Y585611D02*
X920388Y599259D01*
X895611Y596741D02*
X909259Y610388D01*
X906741Y585611D02*
X920388Y599259D01*
X835611Y596741D02*
X849259Y610388D01*
X846741Y585611D02*
X860388Y599259D01*
X835611Y596741D02*
X849259Y610388D01*
X846741Y585611D02*
X860388Y599259D01*
X775611Y596741D02*
X789259Y610388D01*
X786741Y585611D02*
X800388Y599259D01*
X775611Y596741D02*
X789259Y610388D01*
X786741Y585611D02*
X800388Y599259D01*
X545241Y741388D02*
X558889Y727741D01*
X534112Y730259D02*
X547759Y716611D01*
X545241Y741388D02*
X558889Y727741D01*
X534112Y730259D02*
X547759Y716611D01*
X828370Y342350D02*
Y361650D01*
X812630Y342350D02*
Y361650D01*
X828370Y342350D02*
Y361650D01*
X812630Y342350D02*
Y361650D01*
X740630Y715850D02*
Y735150D01*
X756370Y715850D02*
Y735150D01*
X740630Y715850D02*
Y735150D01*
X756370Y715850D02*
Y735150D01*
X1015611Y596741D02*
X1029259Y610388D01*
X1026741Y585611D02*
X1040388Y599259D01*
X1015611Y596741D02*
X1029259Y610388D01*
X1026741Y585611D02*
X1040388Y599259D01*
D85*
X457324Y684194D02*
G03*
X457324Y684194I-5000J0D01*
G01*
X378078Y622676D02*
X452324Y696922D01*
X417676Y583078D02*
X491922Y657324D01*
X452324Y696922D02*
X491922Y657324D01*
X378078Y622676D02*
X417676Y583078D01*
D86*
X599222Y719127D02*
X607127Y711222D01*
X575873Y695778D02*
X583778Y687873D01*
X599222Y719127D02*
X607127Y711222D01*
X575873Y695778D02*
X583778Y687873D01*
X788410Y708490D02*
X799590D01*
X788410Y741510D02*
X799590D01*
X788410Y708490D02*
X799590D01*
X788410Y741510D02*
X799590D01*
X861410Y368510D02*
X872590D01*
X861410Y335490D02*
X872590D01*
X861410Y368510D02*
X872590D01*
X861410Y335490D02*
X872590D01*
X612722Y399313D02*
X620627Y391408D01*
X589373Y375965D02*
X597278Y368059D01*
X612722Y399313D02*
X620627Y391408D01*
X589373Y375965D02*
X597278Y368059D01*
X541873Y384778D02*
X549778Y376873D01*
X565222Y408127D02*
X573127Y400222D01*
X541873Y384778D02*
X549778Y376873D01*
X565222Y408127D02*
X573127Y400222D01*
M02*
