G04*
G04 #@! TF.GenerationSoftware,Altium Limited,Altium Designer,19.0.10 (269)*
G04*
G04 Layer_Color=32768*
%FSLAX44Y44*%
%MOMM*%
G71*
G01*
G75*
%ADD13C,0.1270*%
%ADD81C,0.1999*%
%ADD83C,0.2032*%
%ADD84C,0.1016*%
D13*
X433436Y346240D02*
G03*
X433436Y346240I-36055J0D01*
G01*
X320199Y380000D02*
Y393000D01*
X289801D02*
X320199D01*
X289801Y380000D02*
Y393000D01*
Y380000D02*
X320199D01*
X989599Y310900D02*
Y520900D01*
X1094600D01*
Y310900D02*
Y520900D01*
X989599Y310900D02*
X1094600D01*
X414887Y469536D02*
X442464Y497113D01*
X449536Y434887D02*
X477113Y462464D01*
X314881Y256240D02*
Y286240D01*
X479880D01*
Y256240D02*
Y286240D01*
X314881Y256240D02*
X479880D01*
D81*
X489427Y480142D02*
G03*
X489427Y480142I-1001J0D01*
G01*
D83*
X334251Y320700D02*
X338251D01*
Y334700D01*
X334251D02*
X338251D01*
X334251Y339699D02*
X338251D01*
Y343699D01*
X334251D02*
X338251D01*
X334251Y311700D02*
X338251D01*
Y315701D01*
X334251D02*
X338251D01*
X333250Y303699D02*
Y351701D01*
X325249Y307700D02*
Y347700D01*
X259049Y334700D02*
X263049D01*
X259049Y320700D02*
Y334700D01*
Y320700D02*
X263049D01*
X259049Y315701D02*
X263049D01*
X259049Y311700D02*
Y315701D01*
Y311700D02*
X263049D01*
X259049Y343699D02*
X263049D01*
X259049Y339699D02*
Y343699D01*
Y339699D02*
X263049D01*
X264050Y303699D02*
Y351701D01*
X272051Y307700D02*
X325249D01*
X264050Y303699D02*
X333250D01*
X264050Y351701D02*
X333250D01*
X272051Y307700D02*
Y347700D01*
X325249D01*
X305300Y564049D02*
Y568049D01*
Y564049D02*
X319300D01*
Y568049D01*
X324299Y564049D02*
Y568049D01*
Y564049D02*
X328299D01*
Y568049D01*
X296301Y564049D02*
Y568049D01*
Y564049D02*
X300301D01*
Y568049D01*
X288300Y569050D02*
X336301D01*
X292300Y577051D02*
X332300D01*
X319300Y664651D02*
Y668651D01*
X305300D02*
X319300D01*
X305300Y664651D02*
Y668651D01*
X300301Y664651D02*
Y668651D01*
X296301D02*
X300301D01*
X296301Y664651D02*
Y668651D01*
X328299Y664651D02*
Y668651D01*
X324299D02*
X328299D01*
X324299Y664651D02*
Y668651D01*
X288300Y663650D02*
X336301D01*
X292300Y577051D02*
Y655649D01*
X288300Y569050D02*
Y663650D01*
X336301Y569050D02*
Y663650D01*
X292300Y655649D02*
X332300D01*
Y577051D02*
Y655649D01*
D84*
X265051Y311700D02*
X268051D01*
X271050D01*
X265051Y327700D02*
X268051D01*
X271050D01*
X268051D02*
X271050Y324700D01*
X268051Y311700D02*
X271050Y314700D01*
X268051D02*
X269049Y313699D01*
X265051Y314700D02*
X268051D01*
Y324700D01*
X265051D02*
X268051D01*
X269049Y325701D01*
X296301Y659649D02*
Y662649D01*
Y656650D02*
Y659649D01*
X312300D02*
Y662649D01*
Y656650D02*
Y659649D01*
X309300Y656650D02*
X312300Y659649D01*
X296301D02*
X299300Y656650D01*
X298300Y658651D02*
X299300Y659649D01*
Y662649D01*
Y659649D02*
X309300D01*
Y662649D01*
Y659649D02*
X310301Y658651D01*
M02*
