G04*
G04 #@! TF.GenerationSoftware,Altium Limited,Altium Designer,19.0.10 (269)*
G04*
G04 Layer_Color=32768*
%FSLAX25Y25*%
%MOIN*%
G70*
G01*
G75*
%ADD16C,0.00197*%
%ADD92C,0.00394*%
%ADD94C,0.00200*%
D16*
X173455Y126777D02*
X179913Y120319D01*
X193053Y133459D01*
X186595Y139917D02*
X193053Y133459D01*
X173455Y126777D02*
X186595Y139917D01*
X143560Y249881D02*
X173348Y279668D01*
X169172Y224269D02*
X198960Y254056D01*
X173348Y279668D02*
X198960Y254056D01*
X143560Y249881D02*
X169172Y224269D01*
D92*
X169868Y253360D02*
X172652Y250577D01*
X169868D02*
X172652Y253360D01*
D94*
X438256Y130815D02*
X447177D01*
X438256Y149894D02*
X447177D01*
X438256Y130815D02*
Y149894D01*
X447177Y130815D02*
Y149894D01*
X317059Y274909D02*
Y295957D01*
X308138Y274909D02*
Y295957D01*
X317059D01*
X308138Y274909D02*
X317059D01*
X290224Y295169D02*
X299146D01*
X290224Y276091D02*
X299146D01*
Y295169D01*
X290224Y276091D02*
Y295169D01*
X218749Y277108D02*
X225057Y283417D01*
X205258Y290599D02*
X211566Y296907D01*
X205258Y290599D02*
X218749Y277108D01*
X211566Y296907D02*
X225057Y283417D01*
X222279Y272681D02*
X237161Y287564D01*
X228587Y266373D02*
X243470Y281256D01*
X222279Y272681D02*
X228587Y266373D01*
X237161Y287564D02*
X243470Y281256D01*
X166190Y207734D02*
X172498Y201426D01*
X152699Y194243D02*
X159007Y187935D01*
X172498Y201426D01*
X152699Y194243D02*
X166190Y207734D01*
X141595Y205661D02*
X147903Y199353D01*
X155085Y219151D02*
X161394Y212843D01*
X141595Y205661D02*
X155085Y219151D01*
X147903Y199353D02*
X161394Y212843D01*
X215201Y143932D02*
X230084Y158815D01*
X208893Y150240D02*
X223775Y165123D01*
X230084Y158815D01*
X208893Y150240D02*
X215201Y143932D01*
X227593Y146770D02*
X242476Y161653D01*
X233902Y140462D02*
X248784Y155345D01*
X227593Y146770D02*
X233902Y140462D01*
X242476Y161653D02*
X248784Y155345D01*
X256366Y182630D02*
X265287D01*
X256366Y163552D02*
X265287D01*
Y182630D01*
X256366Y163552D02*
Y182630D01*
X224500Y106760D02*
Y115681D01*
X205421Y106760D02*
Y115681D01*
Y106760D02*
X224500D01*
X205421Y115681D02*
X224500D01*
X250091Y106760D02*
Y115681D01*
X231012Y106760D02*
Y115681D01*
Y106760D02*
X250091D01*
X231012Y115681D02*
X250091D01*
X275681Y106760D02*
Y115681D01*
X256602Y106760D02*
Y115681D01*
Y106760D02*
X275681D01*
X256602Y115681D02*
X275681D01*
X294431Y141684D02*
X300740Y135376D01*
X307922Y155175D02*
X314230Y148867D01*
X294431Y141684D02*
X307922Y155175D01*
X300740Y135376D02*
X314230Y148867D01*
X318571Y129043D02*
X327492D01*
X318571Y148122D02*
X327492D01*
X318571Y129043D02*
Y148122D01*
X327492Y129043D02*
Y148122D01*
X336878Y128059D02*
Y149106D01*
X345799Y128059D02*
Y149106D01*
X336878Y128059D02*
X345799D01*
X336878Y149106D02*
X345799D01*
X313827Y245333D02*
X320136Y239024D01*
X300337Y231842D02*
X306645Y225534D01*
X320136Y239024D01*
X300337Y231842D02*
X313827Y245333D01*
X337450D02*
X343758Y239024D01*
X323959Y231842D02*
X330267Y225534D01*
X343758Y239024D01*
X323959Y231842D02*
X337450Y245333D01*
X361071D02*
X367380Y239024D01*
X347581Y231842D02*
X353889Y225534D01*
X367380Y239024D01*
X347581Y231842D02*
X361071Y245333D01*
X371203Y231842D02*
X384694Y245333D01*
X377511Y225534D02*
X391002Y239024D01*
X371203Y231842D02*
X377511Y225534D01*
X384694Y245333D02*
X391002Y239024D01*
X408316Y245333D02*
X414624Y239024D01*
X394825Y231842D02*
X401133Y225534D01*
X414624Y239024D01*
X394825Y231842D02*
X408316Y245333D01*
M02*
