M48
;Layer_Color=9474304
;FILE_FORMAT=2:5
INCH,LZ
;TYPE=PLATED
T1F00S00C0.02362
T2F00S00C0.02800
T3F00S00C0.03150
T4F00S00C0.03200
T5F00S00C0.03543
T6F00S00C0.03937
T7F00S00C0.04094
T8F00S00C0.05118
T9F00S00C0.12598
;TYPE=NON_PLATED
T10F00S00C0.03543
T11F00S00C0.07874
%
T01
X0294488Y0133268
X0380118Y0138976
X0435236Y0127756
X0442717Y0159055
X043937Y0260433
X0415748Y0260433
X0392126Y0261024
X0368504
X0344882
X0352953Y0207087
X0340748Y0190354
X0326181Y0184843
X0323819Y0203346
X0380906Y0211811
X0312598Y0299213
X0294685
X0260039Y0259646
X0199409Y0245158
X0201378Y0236614
Y022815
X0201186Y0220866
X0201378Y0212008
X0190551Y0199213
X0176378Y0213117
X0180512Y0220079
X0180905Y0227953
X0186417Y0234646
X0185388Y0260433
X0179921Y0256102
X0175Y0251575
X0168504Y0246654
X0162795Y0244488
X016195Y0238439
X0156693Y0243269
X0163779Y0250507
X0162618Y0219094
X0174606Y0296654
X0276378Y0190354
X0286221
Y0173031
X0276378
X0312402Y0190551
X0145472Y0218504
X0144882Y0236568
X0142126Y0254921
X0143307Y0263386
Y0272835
X0138386Y0277165
T02
X0296457Y0119488
X024252Y0211024
X0231299
X0237008Y0218504
X024252Y0225787
X0231299
T03
X0206693Y0189961
X0230118Y0202953
X0236771
X0244094
T04
X0110079Y0124016
X0120079
X0115079Y0134016
X0125079
X0127953Y0230157
Y0240158
Y0250157
X0117953Y0255157
Y0245158
Y0235157
T05
X0395197Y0129331
X0425197
Y0159331
Y0179331
Y0199331
X0395197
Y0179331
Y0159331
T06
X0195866Y0110236
X0212795Y0184055
X0134843Y0167126
T07
X0200787Y0128347
X021063
X0220472
X0230315
X0240158
X025
X0259842
X0269685
X0279528
X0281693Y0149606
X027126
X026063
X032185Y016811
X0331693
X0341535
X0351378
X0361221
X0371063
X0312008
X0302165
T08
X0146606Y0136315
X0156449
Y0126472
X0166292Y0136315
X0156449Y0146158
T09
X0432874Y0297835
X0132283
T10
X0425197Y0159331
Y0179331
Y0199331
T11
X0128398Y0106
X01845
M30
