G04*
G04 #@! TF.GenerationSoftware,Altium Limited,Altium Designer,19.0.10 (269)*
G04*
G04 Layer_Color=32896*
%FSLAX25Y25*%
%MOIN*%
G70*
G01*
G75*
G36*
X359536Y252413D02*
X360180D01*
Y252091D01*
Y251769D01*
Y251448D01*
X359858D01*
Y251126D01*
Y250804D01*
Y250483D01*
X359536D01*
Y250161D01*
Y249839D01*
Y249517D01*
X359215D01*
Y249196D01*
Y248874D01*
X358893D01*
Y248552D01*
Y248231D01*
X358571D01*
Y247909D01*
Y247587D01*
Y247266D01*
X358249D01*
Y246944D01*
Y246622D01*
X357928D01*
Y246301D01*
X357606D01*
Y245979D01*
Y245657D01*
X357284D01*
Y245979D01*
X356963D01*
Y246301D01*
X356641D01*
Y246622D01*
X355998D01*
Y246944D01*
X355355D01*
Y247266D01*
X354390D01*
Y247587D01*
X353425D01*
Y247909D01*
X352460D01*
Y248231D01*
X351173D01*
Y248552D01*
X349886D01*
Y248874D01*
X348278D01*
Y249196D01*
X346991D01*
Y249517D01*
X345383D01*
Y249839D01*
X345061D01*
Y250161D01*
X346670D01*
Y250483D01*
X347956D01*
Y250804D01*
X349565D01*
Y251126D01*
X350851D01*
Y251448D01*
X352460D01*
Y251769D01*
X354068D01*
Y252091D01*
X355998D01*
Y252413D01*
X358571D01*
Y252734D01*
X359536D01*
Y252413D01*
D02*
G37*
G36*
X283623Y286188D02*
Y285866D01*
Y285544D01*
X283301D01*
Y285223D01*
Y284901D01*
Y284579D01*
Y284258D01*
X282980D01*
Y283936D01*
Y283614D01*
Y283293D01*
Y282971D01*
X282658D01*
Y282649D01*
Y282328D01*
Y282006D01*
X282336D01*
Y281684D01*
Y281363D01*
Y281041D01*
Y280719D01*
X282015D01*
Y280398D01*
Y280076D01*
Y279754D01*
Y279433D01*
Y279111D01*
X281693D01*
Y278789D01*
Y278467D01*
Y278146D01*
Y277824D01*
X281371D01*
Y277502D01*
Y277181D01*
Y276859D01*
Y276537D01*
Y276216D01*
X281050D01*
Y275894D01*
Y275572D01*
Y275251D01*
Y274929D01*
X280728D01*
Y274607D01*
Y274286D01*
Y273964D01*
Y273642D01*
Y273321D01*
Y272999D01*
X280406D01*
Y272677D01*
Y272356D01*
Y272034D01*
Y271712D01*
Y271391D01*
Y271069D01*
Y270747D01*
Y270426D01*
X280085D01*
Y270104D01*
Y269782D01*
Y269461D01*
Y269139D01*
Y268817D01*
Y268496D01*
X280406D01*
Y268174D01*
Y267852D01*
Y267531D01*
X281050D01*
Y267209D01*
X282336D01*
Y266887D01*
X283623D01*
Y266566D01*
X284588D01*
Y266244D01*
X285875D01*
Y265922D01*
X286840D01*
Y265601D01*
X287483D01*
Y265279D01*
X288448D01*
Y264957D01*
X289413D01*
Y264636D01*
X290378D01*
Y264314D01*
X291021D01*
Y263993D01*
X291986D01*
Y263671D01*
X292630D01*
Y263349D01*
X293595D01*
Y263028D01*
X294238D01*
Y262706D01*
X295203D01*
Y262384D01*
X295846D01*
Y262063D01*
X296490D01*
Y261741D01*
X297455D01*
Y261419D01*
X298098D01*
Y261098D01*
X298741D01*
Y260776D01*
X299385D01*
Y260454D01*
X300028D01*
Y260133D01*
X300671D01*
Y259811D01*
X301315D01*
Y259489D01*
X301958D01*
Y259168D01*
X302601D01*
Y258846D01*
X303245D01*
Y258524D01*
X303888D01*
Y258203D01*
X304531D01*
Y257881D01*
X305175D01*
Y257559D01*
X305496D01*
Y257238D01*
X306140D01*
Y256916D01*
X306783D01*
Y256594D01*
X307105D01*
Y256273D01*
X307748D01*
Y255951D01*
X308070D01*
Y255629D01*
X308713D01*
Y255308D01*
X309035D01*
Y254986D01*
X309678D01*
Y254664D01*
X310000D01*
Y254343D01*
X310321D01*
Y254021D01*
X310965D01*
Y253699D01*
X311286D01*
Y253378D01*
X311608D01*
Y253056D01*
X311930D01*
Y252734D01*
X314503D01*
Y252413D01*
X318041D01*
Y252091D01*
X321580D01*
Y251769D01*
X325118D01*
Y251448D01*
X328335D01*
Y251126D01*
X331551D01*
Y250804D01*
X334768D01*
Y250483D01*
X337341D01*
Y250161D01*
X339915D01*
Y249839D01*
X342166D01*
Y249517D01*
X344096D01*
Y249196D01*
X345383D01*
Y248874D01*
X346670D01*
Y248552D01*
X347956D01*
Y248231D01*
X349243D01*
Y247909D01*
X350530D01*
Y247587D01*
X351495D01*
Y247266D01*
X352460D01*
Y246944D01*
X353746D01*
Y246622D01*
X354711D01*
Y246301D01*
X355355D01*
Y245979D01*
X355998D01*
Y245657D01*
X356319D01*
Y245336D01*
X356641D01*
Y245014D01*
Y244692D01*
Y244371D01*
Y244049D01*
Y243727D01*
Y243406D01*
Y243084D01*
X356319D01*
Y242762D01*
Y242441D01*
Y242119D01*
X355998D01*
Y241797D01*
Y241476D01*
X355676D01*
Y241154D01*
Y240832D01*
X355355D01*
Y240511D01*
Y240189D01*
X355033D01*
Y239867D01*
X354711D01*
Y239546D01*
Y239224D01*
X354390D01*
Y238902D01*
Y238581D01*
X354068D01*
Y238259D01*
Y237937D01*
X353746D01*
Y237616D01*
X353425D01*
Y237294D01*
Y236972D01*
X353103D01*
Y236651D01*
X352781D01*
Y236329D01*
Y236007D01*
X352460D01*
Y235686D01*
X352138D01*
Y235364D01*
Y235043D01*
X351816D01*
Y234721D01*
X351495D01*
Y234399D01*
X351173D01*
Y234078D01*
Y233756D01*
X350851D01*
Y233434D01*
X350530D01*
Y233113D01*
X350208D01*
Y232791D01*
X349886D01*
Y232469D01*
X349565D01*
Y232148D01*
Y231826D01*
X349243D01*
Y231504D01*
X348921D01*
Y231183D01*
X348600D01*
Y230861D01*
X348278D01*
Y230539D01*
X347956D01*
Y230218D01*
X347635D01*
Y229896D01*
X347313D01*
Y229574D01*
X346991D01*
Y229253D01*
X346670D01*
Y228931D01*
X346026D01*
Y228609D01*
X345705D01*
Y228288D01*
X345383D01*
Y227966D01*
X344740D01*
Y227644D01*
X344096D01*
Y227323D01*
X342810D01*
Y227001D01*
X341201D01*
Y227323D01*
X338950D01*
Y227644D01*
X337020D01*
Y227966D01*
X335411D01*
Y228288D01*
X334125D01*
Y228609D01*
X332516D01*
Y228931D01*
X330908D01*
Y229253D01*
X325761D01*
Y229574D01*
X317398D01*
Y229896D01*
X304853D01*
Y229574D01*
X297455D01*
Y229253D01*
X292951D01*
Y228931D01*
X289413D01*
Y228609D01*
X286518D01*
Y228288D01*
X283945D01*
Y227966D01*
X281693D01*
Y227644D01*
X279763D01*
Y227323D01*
X277833D01*
Y227001D01*
X276225D01*
Y226679D01*
X274295D01*
Y226358D01*
X273008D01*
Y226036D01*
X271400D01*
Y225714D01*
X270113D01*
Y225393D01*
X268826D01*
Y225071D01*
X267540D01*
Y224749D01*
X266253D01*
Y224428D01*
X265288D01*
Y224106D01*
X264001D01*
Y223784D01*
X263036D01*
Y223463D01*
X262071D01*
Y223141D01*
X261106D01*
Y222819D01*
X260141D01*
Y222498D01*
X259176D01*
Y222176D01*
X258211D01*
Y221854D01*
X257246D01*
Y221533D01*
X256603D01*
Y221211D01*
X255638D01*
Y220889D01*
X254995D01*
Y220567D01*
X254030D01*
Y220246D01*
X253386D01*
Y219924D01*
X252743D01*
Y219602D01*
X252100D01*
Y219281D01*
X251456D01*
Y218959D01*
X250813D01*
Y218637D01*
X250170D01*
Y218316D01*
X249526D01*
Y217994D01*
X248883D01*
Y217672D01*
X248240D01*
Y217351D01*
X247596D01*
Y217029D01*
X246953D01*
Y216707D01*
X246631D01*
Y216386D01*
X245988D01*
Y216064D01*
X245345D01*
Y215742D01*
X245023D01*
Y215421D01*
X244380D01*
Y215099D01*
X244058D01*
Y214777D01*
X243415D01*
Y214456D01*
X243093D01*
Y214134D01*
X242450D01*
Y213812D01*
X242128D01*
Y213491D01*
X241485D01*
Y213169D01*
X241163D01*
Y212847D01*
X240841D01*
Y212526D01*
X240198D01*
Y212204D01*
X239876D01*
Y211882D01*
X239555D01*
Y211561D01*
X239233D01*
Y211239D01*
X238911D01*
Y210917D01*
X238268D01*
Y210596D01*
X237946D01*
Y210274D01*
X237625D01*
Y209952D01*
X237303D01*
Y209631D01*
X236981D01*
Y209309D01*
X236660D01*
Y208987D01*
X236338D01*
Y208666D01*
X236016D01*
Y208344D01*
X235695D01*
Y208022D01*
X235373D01*
Y207701D01*
X235051D01*
Y207379D01*
X234730D01*
Y207057D01*
Y206736D01*
X234408D01*
Y206414D01*
X234086D01*
Y206093D01*
X233765D01*
Y205771D01*
X233443D01*
Y205449D01*
X233121D01*
Y205128D01*
Y204806D01*
X232800D01*
Y204484D01*
X232478D01*
Y204163D01*
Y203841D01*
X232156D01*
Y203519D01*
X231835D01*
Y203198D01*
X231513D01*
Y202876D01*
Y202554D01*
X231191D01*
Y202233D01*
Y201911D01*
X230870D01*
Y201589D01*
X230548D01*
Y201268D01*
Y200946D01*
X230226D01*
Y200624D01*
Y200303D01*
X229905D01*
Y199981D01*
Y199659D01*
X229583D01*
Y199337D01*
Y199016D01*
X229261D01*
Y198694D01*
Y198372D01*
X228940D01*
Y198051D01*
Y197729D01*
Y197407D01*
X228618D01*
Y197086D01*
Y196764D01*
X228296D01*
Y196442D01*
Y196121D01*
Y195799D01*
X227975D01*
Y195477D01*
Y195156D01*
Y194834D01*
X227653D01*
Y194512D01*
Y194191D01*
Y193869D01*
Y193547D01*
X227331D01*
Y193226D01*
Y192904D01*
Y192582D01*
Y192261D01*
X227010D01*
Y191939D01*
Y191618D01*
Y191296D01*
Y190974D01*
Y190653D01*
Y190331D01*
X226688D01*
Y190009D01*
Y189688D01*
Y189366D01*
Y189044D01*
Y188723D01*
Y188401D01*
Y188079D01*
Y187758D01*
Y187436D01*
Y187114D01*
X226366D01*
Y186793D01*
Y186471D01*
Y186149D01*
Y185828D01*
Y185506D01*
Y185184D01*
Y184862D01*
Y184541D01*
Y184219D01*
Y183897D01*
Y183576D01*
Y183254D01*
X226688D01*
Y182932D01*
Y182611D01*
Y182289D01*
Y181967D01*
Y181646D01*
Y181324D01*
Y181002D01*
Y180681D01*
Y180359D01*
Y180037D01*
X227010D01*
Y179716D01*
Y179394D01*
Y179072D01*
Y178751D01*
Y178429D01*
Y178108D01*
Y177786D01*
X227331D01*
Y177464D01*
Y177143D01*
Y176821D01*
Y176499D01*
Y176178D01*
X227653D01*
Y175856D01*
Y175534D01*
Y175213D01*
Y174891D01*
X227975D01*
Y174569D01*
Y174248D01*
Y173926D01*
Y173604D01*
X228296D01*
Y173283D01*
Y172961D01*
Y172639D01*
X228618D01*
Y172318D01*
Y171996D01*
Y171674D01*
X228940D01*
Y171353D01*
Y171031D01*
Y170709D01*
X229261D01*
Y170387D01*
Y170066D01*
Y169744D01*
X229583D01*
Y169422D01*
Y169101D01*
Y168779D01*
X229905D01*
Y168457D01*
Y168136D01*
X230226D01*
Y167814D01*
Y167492D01*
Y167171D01*
X230548D01*
Y166849D01*
Y166527D01*
X230870D01*
Y166206D01*
Y165884D01*
X231191D01*
Y165562D01*
Y165241D01*
Y164919D01*
X231513D01*
Y164597D01*
Y164276D01*
X231835D01*
Y163954D01*
Y163633D01*
X232156D01*
Y163311D01*
Y162989D01*
X232478D01*
Y162668D01*
Y162346D01*
X232800D01*
Y162024D01*
Y161703D01*
X233121D01*
Y161381D01*
Y161059D01*
X233443D01*
Y160738D01*
Y160416D01*
X233765D01*
Y160094D01*
Y159773D01*
X234086D01*
Y159451D01*
Y159129D01*
X234408D01*
Y158808D01*
X234730D01*
Y158486D01*
Y158164D01*
X235051D01*
Y157843D01*
Y157521D01*
X235373D01*
Y157199D01*
Y156878D01*
X235695D01*
Y156556D01*
X236016D01*
Y156234D01*
Y155912D01*
X236338D01*
Y155591D01*
X236660D01*
Y155269D01*
Y154947D01*
X236981D01*
Y154626D01*
Y154304D01*
X237303D01*
Y153982D01*
X237625D01*
Y153661D01*
Y153339D01*
X237946D01*
Y153017D01*
X238268D01*
Y152696D01*
Y152374D01*
X238590D01*
Y152052D01*
X238911D01*
Y151731D01*
Y151409D01*
X239233D01*
Y151087D01*
X239555D01*
Y150766D01*
Y150444D01*
X239876D01*
Y150122D01*
X240198D01*
Y149801D01*
X240520D01*
Y149479D01*
Y149158D01*
X240841D01*
Y148836D01*
X241163D01*
Y148514D01*
Y148193D01*
X241485D01*
Y147871D01*
X241806D01*
Y147549D01*
X242128D01*
Y147228D01*
Y146906D01*
X242450D01*
Y146584D01*
X242771D01*
Y146263D01*
X243093D01*
Y145941D01*
Y145619D01*
X243415D01*
Y145298D01*
X243736D01*
Y144976D01*
X243415D01*
Y145298D01*
X242771D01*
Y145619D01*
X242450D01*
Y145941D01*
X241806D01*
Y146263D01*
X241163D01*
Y146584D01*
X240520D01*
Y146906D01*
X240198D01*
Y147228D01*
X239555D01*
Y147549D01*
X238911D01*
Y147871D01*
X238590D01*
Y148193D01*
X237946D01*
Y148514D01*
X237303D01*
Y148836D01*
X236660D01*
Y149158D01*
X236338D01*
Y149479D01*
X235695D01*
Y149801D01*
X235373D01*
Y150122D01*
X234730D01*
Y150444D01*
X234086D01*
Y150766D01*
X233765D01*
Y151087D01*
X233121D01*
Y151409D01*
X232800D01*
Y151731D01*
X232156D01*
Y152052D01*
X231513D01*
Y152374D01*
X231191D01*
Y152696D01*
X230548D01*
Y153017D01*
X230226D01*
Y153339D01*
X229583D01*
Y153661D01*
X229261D01*
Y153982D01*
X228618D01*
Y154304D01*
X228296D01*
Y154626D01*
X227653D01*
Y154947D01*
X227331D01*
Y155269D01*
X227010D01*
Y155591D01*
X226366D01*
Y155912D01*
X226045D01*
Y156234D01*
X225401D01*
Y156556D01*
X225080D01*
Y156878D01*
X224758D01*
Y157199D01*
X224115D01*
Y157521D01*
X223793D01*
Y157843D01*
X223150D01*
Y158164D01*
X222828D01*
Y158486D01*
X222506D01*
Y158808D01*
X221863D01*
Y159129D01*
X221541D01*
Y159451D01*
X221220D01*
Y159773D01*
X220898D01*
Y160094D01*
X220255D01*
Y160416D01*
X219933D01*
Y160738D01*
X219611D01*
Y161059D01*
X219290D01*
Y161381D01*
X218646D01*
Y161703D01*
X218325D01*
Y162024D01*
X218003D01*
Y162346D01*
X217681D01*
Y162668D01*
X217360D01*
Y162989D01*
X216716D01*
Y163311D01*
X216395D01*
Y163633D01*
X216073D01*
Y163954D01*
X215751D01*
Y164276D01*
X215430D01*
Y164597D01*
X215108D01*
Y164919D01*
X214786D01*
Y165241D01*
X214465D01*
Y165562D01*
X214143D01*
Y165884D01*
X213821D01*
Y166206D01*
X213500D01*
Y166527D01*
X213178D01*
Y166849D01*
X212856D01*
Y167171D01*
X212535D01*
Y167492D01*
X212213D01*
Y167814D01*
X211891D01*
Y168136D01*
X211570D01*
Y168457D01*
X211248D01*
Y168779D01*
X210926D01*
Y169101D01*
X210605D01*
Y169422D01*
X210283D01*
Y169744D01*
X209961D01*
Y170066D01*
X209640D01*
Y170387D01*
X209318D01*
Y170709D01*
X208996D01*
Y171031D01*
X208675D01*
Y171353D01*
Y171674D01*
X208353D01*
Y171996D01*
X208031D01*
Y172318D01*
X207710D01*
Y172639D01*
X207388D01*
Y172961D01*
Y173283D01*
X207066D01*
Y173604D01*
X206745D01*
Y173926D01*
X206423D01*
Y174248D01*
Y174569D01*
X206101D01*
Y174891D01*
X205780D01*
Y175213D01*
Y175534D01*
X205458D01*
Y175856D01*
X205136D01*
Y176178D01*
Y176499D01*
X204815D01*
Y176821D01*
X204493D01*
Y177143D01*
Y177464D01*
X204171D01*
Y177786D01*
X203850D01*
Y178108D01*
Y178429D01*
X203528D01*
Y178751D01*
Y179072D01*
X203206D01*
Y179394D01*
Y179716D01*
X202885D01*
Y180037D01*
Y180359D01*
X202563D01*
Y180681D01*
Y181002D01*
X202241D01*
Y181324D01*
Y181646D01*
X201920D01*
Y181967D01*
Y182289D01*
X201598D01*
Y182611D01*
Y182932D01*
Y183254D01*
X201276D01*
Y183576D01*
Y183897D01*
Y184219D01*
X200955D01*
Y184541D01*
Y184862D01*
Y185184D01*
X200633D01*
Y185506D01*
Y185828D01*
Y186149D01*
X200311D01*
Y186471D01*
Y186793D01*
Y187114D01*
Y187436D01*
Y187758D01*
X199990D01*
Y188079D01*
Y188401D01*
Y188723D01*
Y189044D01*
Y189366D01*
Y189688D01*
X199668D01*
Y190009D01*
Y190331D01*
Y190653D01*
Y190974D01*
Y191296D01*
Y191618D01*
Y191939D01*
Y192261D01*
Y192582D01*
Y192904D01*
Y193226D01*
Y193547D01*
Y193869D01*
Y194191D01*
Y194512D01*
Y194834D01*
Y195156D01*
Y195477D01*
Y195799D01*
X199990D01*
Y196121D01*
Y196442D01*
Y196764D01*
Y197086D01*
Y197407D01*
Y197729D01*
X200311D01*
Y198051D01*
Y198372D01*
Y198694D01*
Y199016D01*
X200633D01*
Y199337D01*
Y199659D01*
Y199981D01*
Y200303D01*
X200955D01*
Y200624D01*
Y200946D01*
Y201268D01*
X201276D01*
Y201589D01*
Y201911D01*
Y202233D01*
X201598D01*
Y202554D01*
Y202876D01*
X201920D01*
Y203198D01*
Y203519D01*
Y203841D01*
X202241D01*
Y204163D01*
Y204484D01*
X202563D01*
Y204806D01*
Y205128D01*
X202885D01*
Y205449D01*
Y205771D01*
X203206D01*
Y206093D01*
Y206414D01*
X203528D01*
Y206736D01*
Y207057D01*
X203850D01*
Y207379D01*
X204171D01*
Y207701D01*
Y208022D01*
X204493D01*
Y208344D01*
X204815D01*
Y208666D01*
Y208987D01*
X205136D01*
Y209309D01*
Y209631D01*
X205458D01*
Y209952D01*
X205780D01*
Y210274D01*
X206101D01*
Y210596D01*
Y210917D01*
X206423D01*
Y211239D01*
X206745D01*
Y211561D01*
X207066D01*
Y211882D01*
Y212204D01*
X207388D01*
Y212526D01*
X207710D01*
Y212847D01*
X208031D01*
Y213169D01*
X208353D01*
Y213491D01*
Y213812D01*
X208675D01*
Y214134D01*
X208996D01*
Y214456D01*
X209318D01*
Y214777D01*
X209640D01*
Y215099D01*
X209961D01*
Y215421D01*
X210283D01*
Y215742D01*
X210605D01*
Y216064D01*
X210926D01*
Y216386D01*
Y216707D01*
X211248D01*
Y217029D01*
X211570D01*
Y217351D01*
X211891D01*
Y217672D01*
X212213D01*
Y217994D01*
X212535D01*
Y218316D01*
X212856D01*
Y218637D01*
X213178D01*
Y218959D01*
X213821D01*
Y219281D01*
X214143D01*
Y219602D01*
X214465D01*
Y219924D01*
X214786D01*
Y220246D01*
X215108D01*
Y220567D01*
X215430D01*
Y220889D01*
X215751D01*
Y221211D01*
X216073D01*
Y221533D01*
X216395D01*
Y221854D01*
X217038D01*
Y222176D01*
X217360D01*
Y222498D01*
X217681D01*
Y222819D01*
X218003D01*
Y223141D01*
X218325D01*
Y223463D01*
X218968D01*
Y223784D01*
X219290D01*
Y224106D01*
X219611D01*
Y224428D01*
X219933D01*
Y224749D01*
X220576D01*
Y225071D01*
X220898D01*
Y225393D01*
X221220D01*
Y225714D01*
X221863D01*
Y226036D01*
X222185D01*
Y226358D01*
X222506D01*
Y226679D01*
X223150D01*
Y227001D01*
X223471D01*
Y227323D01*
X224115D01*
Y227644D01*
X224436D01*
Y227966D01*
X224758D01*
Y228288D01*
X225401D01*
Y228609D01*
X225723D01*
Y228931D01*
X226366D01*
Y229253D01*
X226688D01*
Y229574D01*
X227331D01*
Y229896D01*
X227653D01*
Y230218D01*
X228296D01*
Y230539D01*
X228618D01*
Y230861D01*
X229261D01*
Y231183D01*
X229583D01*
Y231504D01*
X230226D01*
Y231826D01*
X230548D01*
Y232148D01*
X231191D01*
Y232469D01*
X231513D01*
Y232791D01*
X228296D01*
Y232469D01*
X222506D01*
Y232791D01*
X218968D01*
Y233113D01*
X216716D01*
Y233434D01*
X215430D01*
Y233756D01*
X214143D01*
Y234078D01*
X212856D01*
Y234399D01*
X211891D01*
Y234721D01*
X211248D01*
Y235043D01*
X213500D01*
Y235364D01*
X215430D01*
Y235686D01*
X217038D01*
Y236007D01*
X218646D01*
Y236329D01*
X220255D01*
Y236651D01*
X221541D01*
Y236972D01*
X222828D01*
Y237294D01*
X224115D01*
Y237616D01*
X225080D01*
Y237937D01*
X226366D01*
Y238259D01*
X227331D01*
Y238581D01*
X228296D01*
Y238902D01*
X229261D01*
Y239224D01*
X230226D01*
Y239546D01*
X231191D01*
Y239867D01*
X232156D01*
Y240189D01*
X233121D01*
Y240511D01*
X234086D01*
Y240832D01*
X234730D01*
Y241154D01*
X235695D01*
Y241476D01*
X236660D01*
Y241797D01*
X237303D01*
Y242119D01*
X238268D01*
Y242441D01*
X238911D01*
Y242762D01*
X239876D01*
Y243084D01*
X240520D01*
Y243406D01*
X241485D01*
Y243727D01*
X242128D01*
Y244049D01*
X242771D01*
Y244371D01*
X243736D01*
Y244692D01*
X244380D01*
Y245014D01*
X245023D01*
Y245336D01*
X245666D01*
Y245657D01*
X246631D01*
Y245979D01*
X247275D01*
Y246301D01*
X247918D01*
Y246622D01*
X248561D01*
Y246944D01*
X249205D01*
Y247266D01*
X250170D01*
Y247587D01*
X247596D01*
Y247909D01*
X245023D01*
Y248231D01*
X242771D01*
Y248552D01*
X240841D01*
Y248874D01*
X239233D01*
Y249196D01*
X237625D01*
Y249517D01*
X236338D01*
Y249839D01*
X235051D01*
Y250161D01*
X233765D01*
Y250483D01*
X232800D01*
Y250804D01*
X231835D01*
Y251126D01*
X230870D01*
Y251448D01*
X229905D01*
Y251769D01*
X229261D01*
Y252091D01*
X228618D01*
Y252413D01*
X232478D01*
Y252734D01*
X237303D01*
Y253056D01*
X239876D01*
Y253378D01*
X242128D01*
Y253699D01*
X243736D01*
Y254021D01*
X245345D01*
Y254343D01*
X246631D01*
Y254664D01*
X247918D01*
Y254986D01*
X248883D01*
Y255308D01*
X249848D01*
Y255629D01*
X250813D01*
Y255951D01*
X251778D01*
Y256273D01*
X252421D01*
Y256594D01*
X253386D01*
Y256916D01*
X254030D01*
Y257238D01*
X254673D01*
Y257559D01*
X255316D01*
Y257881D01*
X255960D01*
Y258203D01*
X256603D01*
Y258524D01*
X257246D01*
Y258846D01*
X257568D01*
Y259168D01*
X258211D01*
Y259489D01*
X258855D01*
Y259811D01*
X259176D01*
Y260133D01*
X259820D01*
Y260454D01*
X260141D01*
Y260776D01*
X260463D01*
Y261098D01*
X261106D01*
Y261419D01*
X261428D01*
Y261741D01*
X261750D01*
Y262063D01*
X262393D01*
Y262384D01*
X262715D01*
Y262706D01*
X263036D01*
Y263028D01*
X263358D01*
Y263349D01*
X263680D01*
Y263671D01*
X264001D01*
Y263993D01*
X264645D01*
Y264314D01*
X264966D01*
Y264636D01*
X265288D01*
Y264957D01*
X265610D01*
Y265279D01*
X265931D01*
Y265601D01*
X266253D01*
Y265922D01*
X266575D01*
Y266244D01*
X266896D01*
Y266566D01*
X267218D01*
Y266887D01*
X267540D01*
Y267209D01*
X267861D01*
Y267531D01*
X268183D01*
Y267852D01*
X268505D01*
Y268174D01*
X268826D01*
Y268496D01*
X269148D01*
Y268817D01*
Y269139D01*
X269470D01*
Y269461D01*
X269791D01*
Y269782D01*
X270113D01*
Y270104D01*
X270435D01*
Y270426D01*
X270756D01*
Y270747D01*
X271078D01*
Y271069D01*
X271400D01*
Y271391D01*
Y271712D01*
X271721D01*
Y272034D01*
X272043D01*
Y272356D01*
X272365D01*
Y272677D01*
X272686D01*
Y272999D01*
X273008D01*
Y273321D01*
Y273642D01*
X273330D01*
Y273964D01*
X273651D01*
Y274286D01*
X273973D01*
Y274607D01*
X274295D01*
Y274929D01*
Y275251D01*
X274616D01*
Y275572D01*
X274938D01*
Y275894D01*
X275260D01*
Y276216D01*
X275581D01*
Y276537D01*
Y276859D01*
X275903D01*
Y277181D01*
X276225D01*
Y277502D01*
X276546D01*
Y277824D01*
X276868D01*
Y278146D01*
Y278467D01*
X277190D01*
Y278789D01*
X277511D01*
Y279111D01*
X277833D01*
Y279433D01*
Y279754D01*
X278155D01*
Y280076D01*
X278476D01*
Y280398D01*
X278798D01*
Y280719D01*
X279120D01*
Y281041D01*
Y281363D01*
X279441D01*
Y281684D01*
X279763D01*
Y282006D01*
X280085D01*
Y282328D01*
Y282649D01*
X280406D01*
Y282971D01*
X280728D01*
Y283293D01*
X281050D01*
Y283614D01*
X281371D01*
Y283936D01*
Y284258D01*
X281693D01*
Y284579D01*
X282015D01*
Y284901D01*
X282336D01*
Y285223D01*
Y285544D01*
X282658D01*
Y285866D01*
X282980D01*
Y286188D01*
X283301D01*
Y286509D01*
X283623D01*
Y286188D01*
D02*
G37*
G36*
X264645Y197086D02*
X265288D01*
Y196764D01*
X265931D01*
Y196442D01*
X266575D01*
Y196121D01*
X266896D01*
Y195799D01*
X267218D01*
Y195477D01*
X267540D01*
Y195156D01*
X267861D01*
Y194834D01*
Y194512D01*
X268183D01*
Y194191D01*
Y193869D01*
Y193547D01*
X268505D01*
Y193226D01*
Y192904D01*
Y192582D01*
Y192261D01*
Y191939D01*
Y191618D01*
Y191296D01*
Y190974D01*
Y190653D01*
Y190331D01*
Y190009D01*
Y189688D01*
Y189366D01*
Y189044D01*
Y188723D01*
Y188401D01*
Y188079D01*
Y187758D01*
Y187436D01*
Y187114D01*
Y186793D01*
Y186471D01*
Y186149D01*
Y185828D01*
Y185506D01*
Y185184D01*
Y184862D01*
Y184541D01*
Y184219D01*
Y183897D01*
Y183576D01*
Y183254D01*
X268183D01*
Y182932D01*
Y182611D01*
Y182289D01*
X267861D01*
Y181967D01*
X267540D01*
Y181646D01*
Y181324D01*
X267218D01*
Y181002D01*
X266575D01*
Y180681D01*
X266253D01*
Y180359D01*
X265610D01*
Y180037D01*
X264966D01*
Y179716D01*
X264001D01*
Y179394D01*
X260785D01*
Y179716D01*
X259820D01*
Y180037D01*
X259176D01*
Y180359D01*
X258533D01*
Y180681D01*
X258211D01*
Y181002D01*
X257890D01*
Y181324D01*
X257568D01*
Y181646D01*
X257246D01*
Y181967D01*
X256925D01*
Y182289D01*
Y182611D01*
X256603D01*
Y182932D01*
Y183254D01*
X257246D01*
Y183576D01*
X257890D01*
Y183897D01*
X258211D01*
Y183576D01*
Y183254D01*
X258533D01*
Y182932D01*
X258855D01*
Y182611D01*
X259176D01*
Y182289D01*
X259498D01*
Y181967D01*
X260141D01*
Y181646D01*
X260785D01*
Y181324D01*
X264001D01*
Y181646D01*
X264966D01*
Y181967D01*
X265288D01*
Y182289D01*
X265931D01*
Y182611D01*
X266253D01*
Y182932D01*
Y183254D01*
X266575D01*
Y183576D01*
Y183897D01*
X266896D01*
Y184219D01*
Y184541D01*
Y184862D01*
Y185184D01*
Y185506D01*
Y185828D01*
Y186149D01*
Y186471D01*
Y186793D01*
Y187114D01*
Y187436D01*
Y187758D01*
Y188079D01*
Y188401D01*
Y188723D01*
Y189044D01*
Y189366D01*
Y189688D01*
Y190009D01*
Y190331D01*
Y190653D01*
Y190974D01*
Y191296D01*
Y191618D01*
Y191939D01*
Y192261D01*
Y192582D01*
Y192904D01*
Y193226D01*
X266575D01*
Y193547D01*
Y193869D01*
X266253D01*
Y194191D01*
X265931D01*
Y194512D01*
X265610D01*
Y194834D01*
X265288D01*
Y195156D01*
X264645D01*
Y195477D01*
X263358D01*
Y195799D01*
X261428D01*
Y195477D01*
X260141D01*
Y195156D01*
X259498D01*
Y194834D01*
X259176D01*
Y194512D01*
X258855D01*
Y194191D01*
X258533D01*
Y193869D01*
Y193547D01*
X258211D01*
Y193869D01*
X257568D01*
Y194191D01*
X257246D01*
Y194512D01*
X256925D01*
Y194834D01*
X257246D01*
Y195156D01*
X257568D01*
Y195477D01*
Y195799D01*
X257890D01*
Y196121D01*
X258533D01*
Y196442D01*
X258855D01*
Y196764D01*
X259498D01*
Y197086D01*
X260463D01*
Y197407D01*
X264645D01*
Y197086D01*
D02*
G37*
G36*
X360501Y203519D02*
Y203198D01*
Y202876D01*
Y202554D01*
Y202233D01*
Y201911D01*
Y201589D01*
Y201268D01*
Y200946D01*
Y200624D01*
Y200303D01*
Y199981D01*
Y199659D01*
Y199337D01*
Y199016D01*
Y198694D01*
Y198372D01*
Y198051D01*
Y197729D01*
Y197407D01*
Y197086D01*
Y196764D01*
Y196442D01*
Y196121D01*
Y195799D01*
Y195477D01*
Y195156D01*
Y194834D01*
Y194512D01*
Y194191D01*
Y193869D01*
Y193547D01*
Y193226D01*
Y192904D01*
Y192582D01*
Y192261D01*
Y191939D01*
Y191618D01*
Y191296D01*
Y190974D01*
Y190653D01*
Y190331D01*
Y190009D01*
Y189688D01*
Y189366D01*
Y189044D01*
Y188723D01*
Y188401D01*
Y188079D01*
Y187758D01*
Y187436D01*
Y187114D01*
Y186793D01*
Y186471D01*
Y186149D01*
Y185828D01*
Y185506D01*
Y185184D01*
Y184862D01*
X360180D01*
Y184541D01*
Y184219D01*
Y183897D01*
X359858D01*
Y183576D01*
Y183254D01*
X359536D01*
Y182932D01*
Y182611D01*
X359215D01*
Y182289D01*
X358893D01*
Y181967D01*
X358571D01*
Y181646D01*
X358249D01*
Y181324D01*
X357928D01*
Y181002D01*
X357606D01*
Y180681D01*
X357284D01*
Y180359D01*
X356641D01*
Y180037D01*
X355998D01*
Y179716D01*
X355033D01*
Y179394D01*
X352781D01*
Y179072D01*
X351495D01*
Y179394D01*
X349565D01*
Y179716D01*
X348600D01*
Y180037D01*
X347956D01*
Y180359D01*
X347313D01*
Y180681D01*
X346670D01*
Y181002D01*
X346348D01*
Y181324D01*
X346026D01*
Y181646D01*
X345705D01*
Y181967D01*
X345383D01*
Y182289D01*
X345061D01*
Y182611D01*
Y182932D01*
X344740D01*
Y183254D01*
Y183576D01*
X344418D01*
Y183897D01*
Y184219D01*
X344096D01*
Y184541D01*
Y184862D01*
Y185184D01*
Y185506D01*
Y185828D01*
X343775D01*
Y186149D01*
Y186471D01*
Y186793D01*
Y187114D01*
Y187436D01*
Y187758D01*
Y188079D01*
Y188401D01*
Y188723D01*
Y189044D01*
Y189366D01*
Y189688D01*
Y190009D01*
Y190331D01*
Y190653D01*
Y190974D01*
Y191296D01*
Y191618D01*
Y191939D01*
Y192261D01*
Y192582D01*
Y192904D01*
Y193226D01*
Y193547D01*
Y193869D01*
Y194191D01*
Y194512D01*
Y194834D01*
Y195156D01*
Y195477D01*
Y195799D01*
Y196121D01*
Y196442D01*
Y196764D01*
Y197086D01*
Y197407D01*
Y197729D01*
Y198051D01*
Y198372D01*
Y198694D01*
Y199016D01*
Y199337D01*
Y199659D01*
Y199981D01*
Y200303D01*
Y200624D01*
Y200946D01*
Y201268D01*
Y201589D01*
Y201911D01*
Y202233D01*
Y202554D01*
Y202876D01*
Y203198D01*
Y203519D01*
Y203841D01*
X345705D01*
Y203519D01*
Y203198D01*
Y202876D01*
Y202554D01*
Y202233D01*
Y201911D01*
Y201589D01*
Y201268D01*
Y200946D01*
Y200624D01*
Y200303D01*
Y199981D01*
Y199659D01*
Y199337D01*
Y199016D01*
Y198694D01*
Y198372D01*
Y198051D01*
Y197729D01*
Y197407D01*
Y197086D01*
Y196764D01*
Y196442D01*
Y196121D01*
Y195799D01*
Y195477D01*
Y195156D01*
Y194834D01*
Y194512D01*
Y194191D01*
Y193869D01*
Y193547D01*
Y193226D01*
Y192904D01*
Y192582D01*
Y192261D01*
Y191939D01*
Y191618D01*
Y191296D01*
Y190974D01*
Y190653D01*
Y190331D01*
Y190009D01*
Y189688D01*
Y189366D01*
Y189044D01*
Y188723D01*
Y188401D01*
Y188079D01*
Y187758D01*
Y187436D01*
Y187114D01*
Y186793D01*
Y186471D01*
Y186149D01*
Y185828D01*
Y185506D01*
Y185184D01*
X346026D01*
Y184862D01*
Y184541D01*
X346348D01*
Y184219D01*
Y183897D01*
X346670D01*
Y183576D01*
Y183254D01*
X346991D01*
Y182932D01*
X347313D01*
Y182611D01*
X347956D01*
Y182289D01*
X348278D01*
Y181967D01*
X348921D01*
Y181646D01*
X349886D01*
Y181324D01*
X351495D01*
Y181002D01*
X352781D01*
Y181324D01*
X354390D01*
Y181646D01*
X355355D01*
Y181967D01*
X355998D01*
Y182289D01*
X356641D01*
Y182611D01*
X356963D01*
Y182932D01*
X357284D01*
Y183254D01*
X357606D01*
Y183576D01*
X357928D01*
Y183897D01*
Y184219D01*
X358249D01*
Y184541D01*
Y184862D01*
X358571D01*
Y185184D01*
Y185506D01*
Y185828D01*
Y186149D01*
Y186471D01*
Y186793D01*
Y187114D01*
Y187436D01*
Y187758D01*
Y188079D01*
Y188401D01*
Y188723D01*
Y189044D01*
Y189366D01*
Y189688D01*
Y190009D01*
Y190331D01*
Y190653D01*
Y190974D01*
Y191296D01*
Y191618D01*
Y191939D01*
Y192261D01*
Y192582D01*
Y192904D01*
Y193226D01*
Y193547D01*
Y193869D01*
Y194191D01*
Y194512D01*
Y194834D01*
Y195156D01*
Y195477D01*
Y195799D01*
Y196121D01*
Y196442D01*
Y196764D01*
Y197086D01*
Y197407D01*
Y197729D01*
Y198051D01*
Y198372D01*
Y198694D01*
Y199016D01*
Y199337D01*
Y199659D01*
Y199981D01*
Y200303D01*
Y200624D01*
Y200946D01*
Y201268D01*
Y201589D01*
Y201911D01*
Y202233D01*
Y202554D01*
Y202876D01*
Y203198D01*
Y203519D01*
Y203841D01*
X360501D01*
Y203519D01*
D02*
G37*
G36*
X246631Y197407D02*
X247918D01*
Y197086D01*
X248883D01*
Y196764D01*
X249205D01*
Y196442D01*
X249848D01*
Y196121D01*
X250170D01*
Y195799D01*
X250491D01*
Y195477D01*
X250813D01*
Y195156D01*
X251135D01*
Y194834D01*
Y194512D01*
X251456D01*
Y194191D01*
Y193869D01*
Y193547D01*
X251778D01*
Y193226D01*
Y192904D01*
Y192582D01*
Y192261D01*
Y191939D01*
Y191618D01*
Y191296D01*
Y190974D01*
Y190653D01*
Y190331D01*
Y190009D01*
Y189688D01*
Y189366D01*
Y189044D01*
Y188723D01*
Y188401D01*
Y188079D01*
Y187758D01*
Y187436D01*
Y187114D01*
Y186793D01*
Y186471D01*
Y186149D01*
Y185828D01*
Y185506D01*
Y185184D01*
Y184862D01*
Y184541D01*
Y184219D01*
Y183897D01*
Y183576D01*
Y183254D01*
X251456D01*
Y182932D01*
Y182611D01*
Y182289D01*
X251135D01*
Y181967D01*
Y181646D01*
X250813D01*
Y181324D01*
X250491D01*
Y181002D01*
X250170D01*
Y180681D01*
X249848D01*
Y180359D01*
X249205D01*
Y180037D01*
X248561D01*
Y179716D01*
X247918D01*
Y179394D01*
X245988D01*
Y179072D01*
X245345D01*
Y179394D01*
X243415D01*
Y179716D01*
X242771D01*
Y180037D01*
X242128D01*
Y180359D01*
X241485D01*
Y180681D01*
X241163D01*
Y181002D01*
X240841D01*
Y181324D01*
X240520D01*
Y181646D01*
Y181967D01*
X240198D01*
Y182289D01*
X239876D01*
Y182611D01*
X240198D01*
Y182932D01*
X240841D01*
Y183254D01*
X241806D01*
Y182932D01*
Y182611D01*
X242128D01*
Y182289D01*
X242450D01*
Y181967D01*
X242771D01*
Y181646D01*
X243415D01*
Y181324D01*
X244701D01*
Y181002D01*
X246631D01*
Y181324D01*
X247918D01*
Y181646D01*
X248561D01*
Y181967D01*
X248883D01*
Y182289D01*
X249205D01*
Y182611D01*
X249526D01*
Y182932D01*
X249848D01*
Y183254D01*
Y183576D01*
Y183897D01*
X250170D01*
Y184219D01*
Y184541D01*
Y184862D01*
Y185184D01*
Y185506D01*
Y185828D01*
Y186149D01*
Y186471D01*
Y186793D01*
Y187114D01*
Y187436D01*
X239555D01*
Y187758D01*
Y188079D01*
Y188401D01*
Y188723D01*
Y189044D01*
Y189366D01*
Y189688D01*
Y190009D01*
Y190331D01*
Y190653D01*
Y190974D01*
Y191296D01*
Y191618D01*
Y191939D01*
Y192261D01*
Y192582D01*
Y192904D01*
Y193226D01*
Y193547D01*
X239876D01*
Y193869D01*
Y194191D01*
Y194512D01*
X240198D01*
Y194834D01*
Y195156D01*
X240520D01*
Y195477D01*
X240841D01*
Y195799D01*
X241163D01*
Y196121D01*
X241485D01*
Y196442D01*
X242128D01*
Y196764D01*
X242450D01*
Y197086D01*
X243415D01*
Y197407D01*
X244701D01*
Y197729D01*
X246631D01*
Y197407D01*
D02*
G37*
G36*
X338628Y203519D02*
Y203198D01*
Y202876D01*
Y202554D01*
Y202233D01*
Y201911D01*
X331230D01*
Y201589D01*
Y201268D01*
Y200946D01*
Y200624D01*
Y200303D01*
Y199981D01*
Y199659D01*
Y199337D01*
Y199016D01*
Y198694D01*
Y198372D01*
Y198051D01*
Y197729D01*
Y197407D01*
Y197086D01*
Y196764D01*
Y196442D01*
Y196121D01*
Y195799D01*
Y195477D01*
Y195156D01*
Y194834D01*
Y194512D01*
Y194191D01*
Y193869D01*
Y193547D01*
Y193226D01*
Y192904D01*
Y192582D01*
Y192261D01*
Y191939D01*
Y191618D01*
Y191296D01*
Y190974D01*
Y190653D01*
Y190331D01*
Y190009D01*
Y189688D01*
Y189366D01*
Y189044D01*
Y188723D01*
Y188401D01*
Y188079D01*
Y187758D01*
Y187436D01*
Y187114D01*
Y186793D01*
Y186471D01*
Y186149D01*
Y185828D01*
Y185506D01*
Y185184D01*
Y184862D01*
Y184541D01*
Y184219D01*
Y183897D01*
Y183576D01*
Y183254D01*
Y182932D01*
Y182611D01*
Y182289D01*
Y181967D01*
Y181646D01*
Y181324D01*
Y181002D01*
Y180681D01*
Y180359D01*
Y180037D01*
Y179716D01*
X329300D01*
Y180037D01*
Y180359D01*
Y180681D01*
Y181002D01*
Y181324D01*
Y181646D01*
Y181967D01*
Y182289D01*
Y182611D01*
Y182932D01*
Y183254D01*
Y183576D01*
Y183897D01*
Y184219D01*
Y184541D01*
Y184862D01*
Y185184D01*
Y185506D01*
Y185828D01*
Y186149D01*
Y186471D01*
Y186793D01*
Y187114D01*
Y187436D01*
Y187758D01*
Y188079D01*
Y188401D01*
Y188723D01*
Y189044D01*
Y189366D01*
Y189688D01*
Y190009D01*
Y190331D01*
Y190653D01*
Y190974D01*
Y191296D01*
Y191618D01*
Y191939D01*
Y192261D01*
Y192582D01*
Y192904D01*
Y193226D01*
Y193547D01*
Y193869D01*
Y194191D01*
Y194512D01*
Y194834D01*
Y195156D01*
Y195477D01*
Y195799D01*
Y196121D01*
Y196442D01*
Y196764D01*
Y197086D01*
Y197407D01*
Y197729D01*
Y198051D01*
Y198372D01*
Y198694D01*
Y199016D01*
Y199337D01*
Y199659D01*
Y199981D01*
Y200303D01*
Y200624D01*
Y200946D01*
Y201268D01*
Y201589D01*
Y201911D01*
X321901D01*
Y202233D01*
Y202554D01*
Y202876D01*
Y203198D01*
Y203519D01*
Y203841D01*
X338628D01*
Y203519D01*
D02*
G37*
G36*
X316433D02*
Y203198D01*
Y202876D01*
Y202554D01*
Y202233D01*
Y201911D01*
Y201589D01*
Y201268D01*
Y200946D01*
Y200624D01*
Y200303D01*
Y199981D01*
Y199659D01*
Y199337D01*
Y199016D01*
Y198694D01*
Y198372D01*
Y198051D01*
Y197729D01*
Y197407D01*
Y197086D01*
Y196764D01*
Y196442D01*
Y196121D01*
Y195799D01*
Y195477D01*
Y195156D01*
Y194834D01*
Y194512D01*
Y194191D01*
Y193869D01*
Y193547D01*
Y193226D01*
Y192904D01*
Y192582D01*
Y192261D01*
Y191939D01*
Y191618D01*
Y191296D01*
Y190974D01*
Y190653D01*
Y190331D01*
Y190009D01*
Y189688D01*
Y189366D01*
Y189044D01*
Y188723D01*
Y188401D01*
Y188079D01*
Y187758D01*
Y187436D01*
Y187114D01*
Y186793D01*
Y186471D01*
Y186149D01*
Y185828D01*
Y185506D01*
Y185184D01*
Y184862D01*
Y184541D01*
Y184219D01*
Y183897D01*
Y183576D01*
Y183254D01*
Y182932D01*
Y182611D01*
Y182289D01*
Y181967D01*
Y181646D01*
Y181324D01*
Y181002D01*
Y180681D01*
Y180359D01*
Y180037D01*
Y179716D01*
X314825D01*
Y180037D01*
Y180359D01*
Y180681D01*
Y181002D01*
Y181324D01*
Y181646D01*
Y181967D01*
Y182289D01*
Y182611D01*
Y182932D01*
Y183254D01*
Y183576D01*
Y183897D01*
Y184219D01*
Y184541D01*
Y184862D01*
Y185184D01*
Y185506D01*
Y185828D01*
Y186149D01*
Y186471D01*
Y186793D01*
Y187114D01*
Y187436D01*
Y187758D01*
Y188079D01*
Y188401D01*
Y188723D01*
Y189044D01*
Y189366D01*
Y189688D01*
Y190009D01*
X304210D01*
Y190331D01*
Y190653D01*
Y190974D01*
Y191296D01*
Y191618D01*
Y191939D01*
X314825D01*
Y192261D01*
Y192582D01*
Y192904D01*
Y193226D01*
Y193547D01*
Y193869D01*
Y194191D01*
Y194512D01*
Y194834D01*
Y195156D01*
Y195477D01*
Y195799D01*
Y196121D01*
Y196442D01*
Y196764D01*
Y197086D01*
Y197407D01*
Y197729D01*
Y198051D01*
Y198372D01*
Y198694D01*
Y199016D01*
Y199337D01*
Y199659D01*
Y199981D01*
Y200303D01*
Y200624D01*
Y200946D01*
Y201268D01*
Y201589D01*
Y201911D01*
X302601D01*
Y202233D01*
Y202554D01*
Y202876D01*
Y203198D01*
Y203519D01*
Y203841D01*
X316433D01*
Y203519D01*
D02*
G37*
G36*
X275260Y197086D02*
X276225D01*
Y196764D01*
X276868D01*
Y196442D01*
X277511D01*
Y196121D01*
X277833D01*
Y195799D01*
X278155D01*
Y195477D01*
X278476D01*
Y195156D01*
X278798D01*
Y194834D01*
X279120D01*
Y194512D01*
Y194191D01*
X279441D01*
Y193869D01*
Y193547D01*
Y193226D01*
X279763D01*
Y192904D01*
Y192582D01*
Y192261D01*
Y191939D01*
Y191618D01*
Y191296D01*
Y190974D01*
Y190653D01*
Y190331D01*
Y190009D01*
Y189688D01*
Y189366D01*
Y189044D01*
Y188723D01*
Y188401D01*
Y188079D01*
Y187758D01*
Y187436D01*
Y187114D01*
Y186793D01*
Y186471D01*
Y186149D01*
Y185828D01*
Y185506D01*
Y185184D01*
Y184862D01*
Y184541D01*
Y184219D01*
Y183897D01*
Y183576D01*
Y183254D01*
Y182932D01*
Y182611D01*
Y182289D01*
Y181967D01*
Y181646D01*
Y181324D01*
Y181002D01*
Y180681D01*
Y180359D01*
Y180037D01*
Y179716D01*
X278155D01*
Y180037D01*
Y180359D01*
Y180681D01*
Y181002D01*
Y181324D01*
Y181646D01*
Y181967D01*
Y182289D01*
Y182611D01*
Y182932D01*
Y183254D01*
Y183576D01*
Y183897D01*
Y184219D01*
Y184541D01*
Y184862D01*
Y185184D01*
Y185506D01*
Y185828D01*
Y186149D01*
Y186471D01*
Y186793D01*
Y187114D01*
Y187436D01*
Y187758D01*
Y188079D01*
Y188401D01*
Y188723D01*
Y189044D01*
Y189366D01*
Y189688D01*
Y190009D01*
Y190331D01*
Y190653D01*
Y190974D01*
Y191296D01*
Y191618D01*
Y191939D01*
Y192261D01*
Y192582D01*
X277833D01*
Y192904D01*
Y193226D01*
Y193547D01*
X277511D01*
Y193869D01*
X277190D01*
Y194191D01*
X276868D01*
Y194512D01*
X276546D01*
Y194834D01*
X276225D01*
Y195156D01*
X275260D01*
Y195477D01*
X272686D01*
Y195799D01*
Y196121D01*
Y196442D01*
Y196764D01*
Y197086D01*
Y197407D01*
X275260D01*
Y197086D01*
D02*
G37*
G36*
X293916Y197407D02*
X294881D01*
Y197086D01*
X295525D01*
Y196764D01*
X296168D01*
Y196442D01*
X296490D01*
Y196121D01*
X297133D01*
Y195799D01*
X297455D01*
Y195477D01*
Y195156D01*
X297776D01*
Y194834D01*
X298098D01*
Y194512D01*
Y194191D01*
X298420D01*
Y193869D01*
Y193547D01*
Y193226D01*
Y192904D01*
Y192582D01*
Y192261D01*
Y191939D01*
Y191618D01*
Y191296D01*
Y190974D01*
Y190653D01*
Y190331D01*
Y190009D01*
Y189688D01*
Y189366D01*
Y189044D01*
Y188723D01*
Y188401D01*
Y188079D01*
Y187758D01*
Y187436D01*
Y187114D01*
Y186793D01*
Y186471D01*
Y186149D01*
Y185828D01*
Y185506D01*
Y185184D01*
Y184862D01*
Y184541D01*
Y184219D01*
Y183897D01*
Y183576D01*
Y183254D01*
Y182932D01*
X298098D01*
Y182611D01*
Y182289D01*
X297776D01*
Y181967D01*
Y181646D01*
X297455D01*
Y181324D01*
X297133D01*
Y181002D01*
X296811D01*
Y180681D01*
X296490D01*
Y180359D01*
X295846D01*
Y180037D01*
X295203D01*
Y179716D01*
X294238D01*
Y179394D01*
X290378D01*
Y179716D01*
X289735D01*
Y180037D01*
X289091D01*
Y180359D01*
X288448D01*
Y180681D01*
X288126D01*
Y181002D01*
X287805D01*
Y181324D01*
X287483D01*
Y181646D01*
X287161D01*
Y181967D01*
X286840D01*
Y182289D01*
Y182611D01*
X286518D01*
Y182932D01*
Y183254D01*
Y183576D01*
Y183897D01*
X286196D01*
Y184219D01*
Y184541D01*
Y184862D01*
Y185184D01*
Y185506D01*
Y185828D01*
Y186149D01*
Y186471D01*
Y186793D01*
Y187114D01*
Y187436D01*
Y187758D01*
Y188079D01*
Y188401D01*
Y188723D01*
Y189044D01*
Y189366D01*
Y189688D01*
Y190009D01*
Y190331D01*
Y190653D01*
Y190974D01*
Y191296D01*
Y191618D01*
Y191939D01*
Y192261D01*
Y192582D01*
Y192904D01*
X286518D01*
Y193226D01*
Y193547D01*
Y193869D01*
Y194191D01*
X286840D01*
Y194512D01*
Y194834D01*
X287161D01*
Y195156D01*
Y195477D01*
X287483D01*
Y195799D01*
X287805D01*
Y196121D01*
X288126D01*
Y196442D01*
X288770D01*
Y196764D01*
X289091D01*
Y197086D01*
X289735D01*
Y197407D01*
X291021D01*
Y197729D01*
X293916D01*
Y197407D01*
D02*
G37*
G36*
X332838Y171353D02*
Y171031D01*
X330265D01*
Y171353D01*
Y171674D01*
X332838D01*
Y171353D01*
D02*
G37*
G36*
X297455D02*
Y171031D01*
X294881D01*
Y171353D01*
Y171674D01*
X297455D01*
Y171353D01*
D02*
G37*
G36*
X272365Y175213D02*
Y174891D01*
Y174569D01*
Y174248D01*
Y173926D01*
Y173604D01*
Y173283D01*
Y172961D01*
Y172639D01*
Y172318D01*
Y171996D01*
Y171674D01*
Y171353D01*
Y171031D01*
Y170709D01*
Y170387D01*
Y170066D01*
Y169744D01*
Y169422D01*
Y169101D01*
Y168779D01*
Y168457D01*
X272043D01*
Y168779D01*
Y169101D01*
Y169422D01*
Y169744D01*
Y170066D01*
Y170387D01*
Y170709D01*
Y171031D01*
Y171353D01*
Y171674D01*
Y171996D01*
Y172318D01*
Y172639D01*
Y172961D01*
Y173283D01*
Y173604D01*
Y173926D01*
Y174248D01*
Y174569D01*
X271721D01*
Y174248D01*
X271400D01*
Y173926D01*
Y173604D01*
X271078D01*
Y173283D01*
X270756D01*
Y172961D01*
Y172639D01*
X270435D01*
Y172318D01*
X270113D01*
Y171996D01*
Y171674D01*
X269791D01*
Y171353D01*
Y171031D01*
X269470D01*
Y170709D01*
X269148D01*
Y170387D01*
Y170066D01*
X268826D01*
Y169744D01*
X268505D01*
Y169422D01*
Y169101D01*
X268183D01*
Y168779D01*
Y168457D01*
X266896D01*
Y168779D01*
Y169101D01*
Y169422D01*
Y169744D01*
Y170066D01*
Y170387D01*
Y170709D01*
Y171031D01*
Y171353D01*
Y171674D01*
Y171996D01*
Y172318D01*
Y172639D01*
Y172961D01*
Y173283D01*
Y173604D01*
Y173926D01*
Y174248D01*
Y174569D01*
Y174891D01*
Y175213D01*
Y175534D01*
X267540D01*
Y175213D01*
Y174891D01*
Y174569D01*
Y174248D01*
Y173926D01*
Y173604D01*
Y173283D01*
Y172961D01*
Y172639D01*
Y172318D01*
Y171996D01*
Y171674D01*
Y171353D01*
Y171031D01*
Y170709D01*
Y170387D01*
Y170066D01*
Y169744D01*
Y169422D01*
Y169101D01*
X267861D01*
Y169422D01*
Y169744D01*
X268183D01*
Y170066D01*
X268505D01*
Y170387D01*
Y170709D01*
X268826D01*
Y171031D01*
X269148D01*
Y171353D01*
Y171674D01*
X269470D01*
Y171996D01*
Y172318D01*
X269791D01*
Y172639D01*
X270113D01*
Y172961D01*
Y173283D01*
X270435D01*
Y173604D01*
X270756D01*
Y173926D01*
Y174248D01*
X271078D01*
Y174569D01*
Y174891D01*
X271400D01*
Y175213D01*
X271721D01*
Y175534D01*
X272365D01*
Y175213D01*
D02*
G37*
G36*
X280085D02*
X280406D01*
Y174891D01*
X280728D01*
Y174569D01*
X281050D01*
Y174248D01*
Y173926D01*
Y173604D01*
Y173283D01*
Y172961D01*
Y172639D01*
Y172318D01*
Y171996D01*
Y171674D01*
Y171353D01*
Y171031D01*
Y170709D01*
Y170387D01*
Y170066D01*
Y169744D01*
Y169422D01*
X280728D01*
Y169101D01*
X280406D01*
Y168779D01*
X280085D01*
Y168457D01*
X279120D01*
Y168136D01*
X277833D01*
Y168457D01*
X276868D01*
Y168779D01*
X276546D01*
Y169101D01*
X276225D01*
Y169422D01*
Y169744D01*
X276546D01*
Y169422D01*
X276868D01*
Y169101D01*
X277511D01*
Y168779D01*
X279441D01*
Y169101D01*
X280085D01*
Y169422D01*
X280406D01*
Y169744D01*
Y170066D01*
X280728D01*
Y170387D01*
Y170709D01*
Y171031D01*
Y171353D01*
Y171674D01*
Y171996D01*
Y172318D01*
Y172639D01*
Y172961D01*
Y173283D01*
Y173604D01*
Y173926D01*
X280406D01*
Y174248D01*
Y174569D01*
X280085D01*
Y174891D01*
X279120D01*
Y175213D01*
X277833D01*
Y174891D01*
X276868D01*
Y174569D01*
X276546D01*
Y174248D01*
X275903D01*
Y174569D01*
X276225D01*
Y174891D01*
X276546D01*
Y175213D01*
X276868D01*
Y175534D01*
X280085D01*
Y175213D01*
D02*
G37*
G36*
X263680Y175534D02*
X264645D01*
Y175213D01*
X264966D01*
Y174891D01*
X265288D01*
Y174569D01*
X265610D01*
Y174248D01*
Y173926D01*
Y173604D01*
Y173283D01*
Y172961D01*
Y172639D01*
Y172318D01*
Y171996D01*
Y171674D01*
Y171353D01*
Y171031D01*
Y170709D01*
Y170387D01*
Y170066D01*
Y169744D01*
Y169422D01*
X265288D01*
Y169101D01*
X264966D01*
Y168779D01*
X264645D01*
Y168457D01*
X263680D01*
Y168136D01*
X262071D01*
Y168457D01*
X261106D01*
Y168779D01*
X260785D01*
Y169101D01*
X260463D01*
Y169422D01*
Y169744D01*
X260141D01*
Y170066D01*
Y170387D01*
Y170709D01*
Y171031D01*
Y171353D01*
Y171674D01*
Y171996D01*
X263036D01*
Y171674D01*
Y171353D01*
X260785D01*
Y171031D01*
Y170709D01*
Y170387D01*
Y170066D01*
Y169744D01*
X261106D01*
Y169422D01*
X261428D01*
Y169101D01*
X262071D01*
Y168779D01*
X264001D01*
Y169101D01*
X264645D01*
Y169422D01*
X264966D01*
Y169744D01*
Y170066D01*
Y170387D01*
X265288D01*
Y170709D01*
Y171031D01*
Y171353D01*
Y171674D01*
Y171996D01*
Y172318D01*
Y172639D01*
Y172961D01*
Y173283D01*
Y173604D01*
X264966D01*
Y173926D01*
Y174248D01*
Y174569D01*
X264645D01*
Y174891D01*
X264001D01*
Y175213D01*
X262071D01*
Y174891D01*
X261428D01*
Y174569D01*
X261106D01*
Y174248D01*
X260463D01*
Y174569D01*
X260785D01*
Y174891D01*
Y175213D01*
X261428D01*
Y175534D01*
X262393D01*
Y175856D01*
X263680D01*
Y175534D01*
D02*
G37*
G36*
X338306Y175213D02*
Y174891D01*
Y174569D01*
Y174248D01*
Y173926D01*
Y173604D01*
Y173283D01*
Y172961D01*
Y172639D01*
Y172318D01*
Y171996D01*
Y171674D01*
Y171353D01*
Y171031D01*
Y170709D01*
Y170387D01*
Y170066D01*
Y169744D01*
Y169422D01*
Y169101D01*
Y168779D01*
Y168457D01*
X337663D01*
Y168779D01*
Y169101D01*
Y169422D01*
Y169744D01*
Y170066D01*
Y170387D01*
Y170709D01*
Y171031D01*
Y171353D01*
X334125D01*
Y171674D01*
Y171996D01*
X337663D01*
Y172318D01*
Y172639D01*
Y172961D01*
Y173283D01*
Y173604D01*
Y173926D01*
Y174248D01*
Y174569D01*
Y174891D01*
Y175213D01*
X333803D01*
Y175534D01*
X338306D01*
Y175213D01*
D02*
G37*
G36*
X320936D02*
X321258D01*
Y174891D01*
Y174569D01*
Y174248D01*
X321580D01*
Y173926D01*
Y173604D01*
X321901D01*
Y173283D01*
Y172961D01*
Y172639D01*
X322223D01*
Y172318D01*
Y171996D01*
Y171674D01*
X322545D01*
Y171353D01*
Y171031D01*
Y170709D01*
X322866D01*
Y170387D01*
Y170066D01*
Y169744D01*
X323188D01*
Y169422D01*
Y169101D01*
X323510D01*
Y168779D01*
Y168457D01*
X322866D01*
Y168779D01*
Y169101D01*
X322545D01*
Y169422D01*
Y169744D01*
Y170066D01*
X322223D01*
Y170387D01*
Y170709D01*
X319006D01*
Y170387D01*
X318685D01*
Y170066D01*
Y169744D01*
X318363D01*
Y169422D01*
Y169101D01*
Y168779D01*
X318041D01*
Y168457D01*
X317720D01*
Y168779D01*
Y169101D01*
Y169422D01*
X318041D01*
Y169744D01*
Y170066D01*
Y170387D01*
X318363D01*
Y170709D01*
Y171031D01*
Y171353D01*
X318685D01*
Y171674D01*
Y171996D01*
X319006D01*
Y172318D01*
Y172639D01*
Y172961D01*
X319328D01*
Y173283D01*
Y173604D01*
Y173926D01*
X319650D01*
Y174248D01*
Y174569D01*
Y174891D01*
X319971D01*
Y175213D01*
Y175534D01*
X320936D01*
Y175213D01*
D02*
G37*
G36*
X316433D02*
Y174891D01*
Y174569D01*
Y174248D01*
Y173926D01*
Y173604D01*
Y173283D01*
Y172961D01*
Y172639D01*
Y172318D01*
Y171996D01*
Y171674D01*
Y171353D01*
Y171031D01*
Y170709D01*
Y170387D01*
Y170066D01*
Y169744D01*
Y169422D01*
Y169101D01*
Y168779D01*
Y168457D01*
X311930D01*
Y168779D01*
X315790D01*
Y169101D01*
Y169422D01*
Y169744D01*
Y170066D01*
Y170387D01*
Y170709D01*
Y171031D01*
Y171353D01*
Y171674D01*
X312251D01*
Y171996D01*
Y172318D01*
X315790D01*
Y172639D01*
Y172961D01*
Y173283D01*
Y173604D01*
Y173926D01*
Y174248D01*
Y174569D01*
Y174891D01*
Y175213D01*
X311930D01*
Y175534D01*
X316433D01*
Y175213D01*
D02*
G37*
G36*
X302923D02*
Y174891D01*
Y174569D01*
Y174248D01*
Y173926D01*
Y173604D01*
Y173283D01*
Y172961D01*
Y172639D01*
Y172318D01*
Y171996D01*
Y171674D01*
Y171353D01*
Y171031D01*
Y170709D01*
Y170387D01*
Y170066D01*
Y169744D01*
Y169422D01*
Y169101D01*
Y168779D01*
Y168457D01*
X298420D01*
Y168779D01*
X302601D01*
Y169101D01*
Y169422D01*
Y169744D01*
Y170066D01*
Y170387D01*
Y170709D01*
Y171031D01*
Y171353D01*
Y171674D01*
X298741D01*
Y171996D01*
Y172318D01*
X302601D01*
Y172639D01*
Y172961D01*
Y173283D01*
Y173604D01*
Y173926D01*
Y174248D01*
Y174569D01*
Y174891D01*
Y175213D01*
X298420D01*
Y175534D01*
X302923D01*
Y175213D01*
D02*
G37*
G36*
X293595D02*
Y174891D01*
Y174569D01*
Y174248D01*
Y173926D01*
Y173604D01*
Y173283D01*
Y172961D01*
Y172639D01*
Y172318D01*
Y171996D01*
Y171674D01*
Y171353D01*
Y171031D01*
Y170709D01*
Y170387D01*
Y170066D01*
Y169744D01*
Y169422D01*
Y169101D01*
Y168779D01*
Y168457D01*
X292951D01*
Y168779D01*
Y169101D01*
Y169422D01*
Y169744D01*
Y170066D01*
Y170387D01*
Y170709D01*
Y171031D01*
Y171353D01*
X291343D01*
Y171031D01*
X291021D01*
Y170709D01*
Y170387D01*
X290700D01*
Y170066D01*
X290378D01*
Y169744D01*
X290056D01*
Y169422D01*
X289735D01*
Y169101D01*
Y168779D01*
X289413D01*
Y168457D01*
X288770D01*
Y168779D01*
X289091D01*
Y169101D01*
Y169422D01*
X289413D01*
Y169744D01*
X289735D01*
Y170066D01*
X290056D01*
Y170387D01*
Y170709D01*
X290378D01*
Y171031D01*
X290700D01*
Y171353D01*
X290056D01*
Y171674D01*
X289091D01*
Y171996D01*
X288770D01*
Y172318D01*
Y172639D01*
X288448D01*
Y172961D01*
Y173283D01*
Y173604D01*
Y173926D01*
Y174248D01*
Y174569D01*
X288770D01*
Y174891D01*
X289091D01*
Y175213D01*
X289413D01*
Y175534D01*
X293595D01*
Y175213D01*
D02*
G37*
G36*
X285231D02*
Y174891D01*
X285553D01*
Y174569D01*
Y174248D01*
X285875D01*
Y173926D01*
Y173604D01*
Y173283D01*
X286196D01*
Y172961D01*
Y172639D01*
Y172318D01*
X286518D01*
Y171996D01*
Y171674D01*
Y171353D01*
X286840D01*
Y171031D01*
Y170709D01*
X287161D01*
Y170387D01*
Y170066D01*
Y169744D01*
X287483D01*
Y169422D01*
Y169101D01*
Y168779D01*
X287805D01*
Y168457D01*
X287161D01*
Y168779D01*
Y169101D01*
X286840D01*
Y169422D01*
Y169744D01*
X286518D01*
Y170066D01*
Y170387D01*
Y170709D01*
X282980D01*
Y170387D01*
Y170066D01*
Y169744D01*
X282658D01*
Y169422D01*
Y169101D01*
X282336D01*
Y168779D01*
Y168457D01*
X281693D01*
Y168779D01*
X282015D01*
Y169101D01*
Y169422D01*
Y169744D01*
X282336D01*
Y170066D01*
Y170387D01*
X282658D01*
Y170709D01*
Y171031D01*
Y171353D01*
X282980D01*
Y171674D01*
Y171996D01*
Y172318D01*
X283301D01*
Y172639D01*
Y172961D01*
Y173283D01*
X283623D01*
Y173604D01*
Y173926D01*
Y174248D01*
X283945D01*
Y174569D01*
Y174891D01*
X284266D01*
Y175213D01*
Y175534D01*
X285231D01*
Y175213D01*
D02*
G37*
G36*
X274938D02*
Y174891D01*
Y174569D01*
Y174248D01*
Y173926D01*
Y173604D01*
Y173283D01*
Y172961D01*
Y172639D01*
Y172318D01*
Y171996D01*
Y171674D01*
Y171353D01*
Y171031D01*
Y170709D01*
Y170387D01*
Y170066D01*
Y169744D01*
Y169422D01*
Y169101D01*
Y168779D01*
Y168457D01*
X274295D01*
Y168779D01*
Y169101D01*
Y169422D01*
Y169744D01*
Y170066D01*
Y170387D01*
Y170709D01*
Y171031D01*
Y171353D01*
Y171674D01*
Y171996D01*
Y172318D01*
Y172639D01*
Y172961D01*
Y173283D01*
Y173604D01*
Y173926D01*
Y174248D01*
Y174569D01*
Y174891D01*
Y175213D01*
Y175534D01*
X274938D01*
Y175213D01*
D02*
G37*
G36*
X327691Y175534D02*
X328335D01*
Y175213D01*
X328978D01*
Y174891D01*
Y174569D01*
X329300D01*
Y174248D01*
Y173926D01*
Y173604D01*
Y173283D01*
Y172961D01*
X328978D01*
Y172639D01*
X328656D01*
Y172318D01*
X328013D01*
Y171996D01*
X326726D01*
Y171674D01*
X325761D01*
Y171353D01*
X325118D01*
Y171031D01*
X324796D01*
Y170709D01*
Y170387D01*
Y170066D01*
Y169744D01*
Y169422D01*
X325118D01*
Y169101D01*
X325761D01*
Y168779D01*
X328013D01*
Y169101D01*
X328335D01*
Y169422D01*
X328656D01*
Y169744D01*
X329300D01*
Y169422D01*
Y169101D01*
X328978D01*
Y168779D01*
X328656D01*
Y168457D01*
X327691D01*
Y168136D01*
X325761D01*
Y168457D01*
X325118D01*
Y168779D01*
X324796D01*
Y169101D01*
X324475D01*
Y169422D01*
Y169744D01*
X324153D01*
Y170066D01*
Y170387D01*
Y170709D01*
Y171031D01*
X324475D01*
Y171353D01*
Y171674D01*
X325118D01*
Y171996D01*
X325761D01*
Y172318D01*
X327370D01*
Y172639D01*
X328335D01*
Y172961D01*
X328656D01*
Y173283D01*
Y173604D01*
Y173926D01*
Y174248D01*
Y174569D01*
X328335D01*
Y174891D01*
X327691D01*
Y175213D01*
X325761D01*
Y174891D01*
X325118D01*
Y174569D01*
X324796D01*
Y174248D01*
X324153D01*
Y174569D01*
X324475D01*
Y174891D01*
X324796D01*
Y175213D01*
X325118D01*
Y175534D01*
X326083D01*
Y175856D01*
X327691D01*
Y175534D01*
D02*
G37*
G36*
X307748Y176178D02*
Y175856D01*
Y175534D01*
Y175213D01*
Y174891D01*
Y174569D01*
Y174248D01*
Y173926D01*
Y173604D01*
Y173283D01*
Y172961D01*
Y172639D01*
Y172318D01*
Y171996D01*
Y171674D01*
Y171353D01*
Y171031D01*
Y170709D01*
Y170387D01*
Y170066D01*
Y169744D01*
Y169422D01*
Y169101D01*
Y168779D01*
Y168457D01*
Y168136D01*
Y167814D01*
Y167492D01*
X307105D01*
Y167814D01*
Y168136D01*
Y168457D01*
Y168779D01*
Y169101D01*
Y169422D01*
Y169744D01*
Y170066D01*
Y170387D01*
Y170709D01*
Y171031D01*
Y171353D01*
Y171674D01*
Y171996D01*
Y172318D01*
Y172639D01*
Y172961D01*
Y173283D01*
Y173604D01*
Y173926D01*
Y174248D01*
Y174569D01*
Y174891D01*
Y175213D01*
Y175534D01*
Y175856D01*
Y176178D01*
Y176499D01*
X307748D01*
Y176178D01*
D02*
G37*
%LPC*%
G36*
X282336Y257881D02*
X280728D01*
Y257559D01*
Y257238D01*
Y256916D01*
Y256594D01*
Y256273D01*
Y255951D01*
Y255629D01*
Y255308D01*
Y254986D01*
Y254664D01*
Y254343D01*
Y254021D01*
Y253699D01*
Y253378D01*
X281050D01*
Y253056D01*
Y252734D01*
Y252413D01*
Y252091D01*
Y251769D01*
X281371D01*
Y251448D01*
Y251126D01*
X282015D01*
Y250804D01*
X283623D01*
Y251126D01*
X289091D01*
Y250804D01*
X290700D01*
Y250483D01*
X291986D01*
Y250161D01*
X293273D01*
Y249839D01*
X294560D01*
Y249517D01*
X295525D01*
Y249196D01*
X296811D01*
Y248874D01*
X297776D01*
Y248552D01*
X299063D01*
Y248231D01*
X300028D01*
Y247909D01*
X300993D01*
Y247587D01*
X301958D01*
Y247909D01*
Y248231D01*
X301315D01*
Y248552D01*
X300993D01*
Y248874D01*
X300671D01*
Y249196D01*
X300028D01*
Y249517D01*
X299706D01*
Y249839D01*
X299063D01*
Y250161D01*
X298420D01*
Y250483D01*
X298098D01*
Y250804D01*
X297455D01*
Y251126D01*
X296811D01*
Y251448D01*
X296168D01*
Y251769D01*
X295525D01*
Y252091D01*
X294881D01*
Y252413D01*
X294238D01*
Y252734D01*
X293595D01*
Y253056D01*
X292951D01*
Y253378D01*
X292308D01*
Y253699D01*
X291665D01*
Y254021D01*
X291021D01*
Y254343D01*
X290378D01*
Y254664D01*
X289735D01*
Y254986D01*
X288770D01*
Y255308D01*
X288126D01*
Y255629D01*
X287483D01*
Y255951D01*
X286840D01*
Y256273D01*
X285875D01*
Y256594D01*
X285231D01*
Y256916D01*
X284266D01*
Y257238D01*
X283623D01*
Y257559D01*
X282336D01*
Y257881D01*
D02*
G37*
G36*
X246953Y195799D02*
X244380D01*
Y195477D01*
X243415D01*
Y195156D01*
X242771D01*
Y194834D01*
X242450D01*
Y194512D01*
X242128D01*
Y194191D01*
X241806D01*
Y193869D01*
X241485D01*
Y193547D01*
Y193226D01*
Y192904D01*
X241163D01*
Y192582D01*
Y192261D01*
Y191939D01*
Y191618D01*
Y191296D01*
Y190974D01*
Y190653D01*
Y190331D01*
Y190009D01*
Y189688D01*
Y189366D01*
Y189044D01*
X250170D01*
Y189366D01*
Y189688D01*
Y190009D01*
Y190331D01*
Y190653D01*
Y190974D01*
Y191296D01*
Y191618D01*
Y191939D01*
Y192261D01*
Y192582D01*
Y192904D01*
X249848D01*
Y193226D01*
Y193547D01*
Y193869D01*
X249526D01*
Y194191D01*
X249205D01*
Y194512D01*
X248883D01*
Y194834D01*
X248561D01*
Y195156D01*
X247918D01*
Y195477D01*
X246953D01*
Y195799D01*
D02*
G37*
G36*
X293916D02*
X291021D01*
Y195477D01*
X290056D01*
Y195156D01*
X289413D01*
Y194834D01*
X289091D01*
Y194512D01*
X288770D01*
Y194191D01*
X288448D01*
Y193869D01*
Y193547D01*
X288126D01*
Y193226D01*
Y192904D01*
Y192582D01*
Y192261D01*
Y191939D01*
Y191618D01*
Y191296D01*
Y190974D01*
Y190653D01*
Y190331D01*
Y190009D01*
Y189688D01*
Y189366D01*
Y189044D01*
Y188723D01*
Y188401D01*
Y188079D01*
Y187758D01*
Y187436D01*
Y187114D01*
Y186793D01*
Y186471D01*
Y186149D01*
Y185828D01*
Y185506D01*
Y185184D01*
Y184862D01*
Y184541D01*
Y184219D01*
Y183897D01*
Y183576D01*
Y183254D01*
X288448D01*
Y182932D01*
X288770D01*
Y182611D01*
X289091D01*
Y182289D01*
X289413D01*
Y181967D01*
X289735D01*
Y181646D01*
X290378D01*
Y181324D01*
X291986D01*
Y181002D01*
X292951D01*
Y181324D01*
X294238D01*
Y181646D01*
X295203D01*
Y181967D01*
X295525D01*
Y182289D01*
X295846D01*
Y182611D01*
X296168D01*
Y182932D01*
X296490D01*
Y183254D01*
Y183576D01*
X296811D01*
Y183897D01*
Y184219D01*
Y184541D01*
Y184862D01*
Y185184D01*
Y185506D01*
Y185828D01*
Y186149D01*
Y186471D01*
Y186793D01*
Y187114D01*
Y187436D01*
Y187758D01*
Y188079D01*
Y188401D01*
Y188723D01*
Y189044D01*
Y189366D01*
Y189688D01*
Y190009D01*
Y190331D01*
Y190653D01*
Y190974D01*
Y191296D01*
Y191618D01*
Y191939D01*
Y192261D01*
Y192582D01*
Y192904D01*
Y193226D01*
Y193547D01*
X296490D01*
Y193869D01*
Y194191D01*
X296168D01*
Y194512D01*
X295846D01*
Y194834D01*
X295203D01*
Y195156D01*
X294881D01*
Y195477D01*
X293916D01*
Y195799D01*
D02*
G37*
G36*
X320615Y174891D02*
X320293D01*
Y174569D01*
Y174248D01*
X319971D01*
Y173926D01*
Y173604D01*
Y173283D01*
X319650D01*
Y172961D01*
Y172639D01*
Y172318D01*
X319328D01*
Y171996D01*
Y171674D01*
Y171353D01*
X321901D01*
Y171674D01*
Y171996D01*
X321580D01*
Y172318D01*
Y172639D01*
Y172961D01*
X321258D01*
Y173283D01*
Y173604D01*
X320936D01*
Y173926D01*
Y174248D01*
Y174569D01*
X320615D01*
Y174891D01*
D02*
G37*
G36*
X292951Y175213D02*
X290378D01*
Y174891D01*
X289413D01*
Y174569D01*
X289091D01*
Y174248D01*
Y173926D01*
Y173604D01*
Y173283D01*
Y172961D01*
Y172639D01*
X289413D01*
Y172318D01*
X289735D01*
Y171996D01*
X292951D01*
Y172318D01*
Y172639D01*
Y172961D01*
Y173283D01*
Y173604D01*
Y173926D01*
Y174248D01*
Y174569D01*
Y174891D01*
Y175213D01*
D02*
G37*
G36*
X284910D02*
X284588D01*
Y174891D01*
Y174569D01*
Y174248D01*
X284266D01*
Y173926D01*
Y173604D01*
X283945D01*
Y173283D01*
Y172961D01*
Y172639D01*
X283623D01*
Y172318D01*
Y171996D01*
Y171674D01*
X283301D01*
Y171353D01*
X286196D01*
Y171674D01*
X285875D01*
Y171996D01*
Y172318D01*
Y172639D01*
X285553D01*
Y172961D01*
Y173283D01*
Y173604D01*
X285231D01*
Y173926D01*
Y174248D01*
Y174569D01*
X284910D01*
Y174891D01*
Y175213D01*
D02*
G37*
%LPD*%
M02*
