G04*
G04 #@! TF.GenerationSoftware,Altium Limited,Altium Designer,19.0.10 (269)*
G04*
G04 Layer_Physical_Order=2*
G04 Layer_Color=16711680*
%FSLAX25Y25*%
%MOIN*%
G70*
G01*
G75*
%ADD14C,0.01000*%
%ADD15C,0.03543*%
%ADD69C,0.01595*%
%ADD71C,0.01575*%
%ADD72C,0.03228*%
%ADD73C,0.01595*%
%ADD74C,0.04800*%
%ADD75R,0.07359X0.07359*%
%ADD76R,0.07359X0.07359*%
%ADD77C,0.07874*%
%ADD78C,0.07677*%
%ADD79O,0.05197X0.12284*%
%ADD80C,0.03150*%
%ADD81C,0.04724*%
%ADD82C,0.05000*%
%ADD83C,0.05197*%
%ADD84C,0.13386*%
%ADD85C,0.07598*%
%ADD86C,0.03543*%
%ADD87C,0.03200*%
G36*
X448622Y102531D02*
X448161Y102438D01*
X188659D01*
X188392Y102938D01*
X189151Y104074D01*
X189534Y106000D01*
X189151Y107926D01*
X188059Y109559D01*
X186426Y110651D01*
X184500Y111034D01*
X182574Y110651D01*
X180941Y109559D01*
X179850Y107926D01*
X179466Y106000D01*
X179850Y104074D01*
X180608Y102938D01*
X180341Y102438D01*
X132557D01*
X132290Y102938D01*
X133049Y104074D01*
X133432Y106000D01*
X133049Y107926D01*
X131957Y109559D01*
X130324Y110651D01*
X128398Y111034D01*
X126472Y110651D01*
X124839Y109559D01*
X123748Y107926D01*
X123364Y106000D01*
X123748Y104074D01*
X124506Y102938D01*
X124239Y102438D01*
X97638D01*
Y313976D01*
X97638Y313976D01*
X448622D01*
Y102531D01*
D02*
G37*
%LPC*%
G36*
X312598Y301999D02*
X311128Y301390D01*
X312598Y299920D01*
X314069Y301390D01*
X312598Y301999D01*
D02*
G37*
G36*
X294685D02*
X293214Y301390D01*
X294685Y299920D01*
X296156Y301390D01*
X294685Y301999D01*
D02*
G37*
G36*
X432874Y305678D02*
X429872Y305081D01*
X427752Y303664D01*
X432874Y298542D01*
X437996Y303664D01*
X435876Y305081D01*
X432874Y305678D01*
D02*
G37*
G36*
X132283D02*
X129282Y305081D01*
X127161Y303664D01*
X132283Y298542D01*
X137406Y303664D01*
X135285Y305081D01*
X132283Y305678D01*
D02*
G37*
G36*
X314776Y300683D02*
X313305Y299213D01*
X314776Y297742D01*
X315385Y299213D01*
X314776Y300683D01*
D02*
G37*
G36*
X296863D02*
X295392Y299213D01*
X296863Y297742D01*
X297472Y299213D01*
X296863Y300683D01*
D02*
G37*
G36*
X310421D02*
X309811Y299213D01*
X310421Y297742D01*
X311891Y299213D01*
X310421Y300683D01*
D02*
G37*
G36*
X292507D02*
X291898Y299213D01*
X292507Y297742D01*
X293978Y299213D01*
X292507Y300683D01*
D02*
G37*
G36*
X174606Y299441D02*
X173136Y298831D01*
X174606Y297361D01*
X176077Y298831D01*
X174606Y299441D01*
D02*
G37*
G36*
X312598Y298505D02*
X311128Y297035D01*
X312598Y296426D01*
X314069Y297035D01*
X312598Y298505D01*
D02*
G37*
G36*
X294685D02*
X293214Y297035D01*
X294685Y296426D01*
X296156Y297035D01*
X294685Y298505D01*
D02*
G37*
G36*
X176784Y298124D02*
X175313Y296654D01*
X176784Y295183D01*
X177393Y296654D01*
X176784Y298124D01*
D02*
G37*
G36*
X172429D02*
X171819Y296654D01*
X172429Y295183D01*
X173899Y296654D01*
X172429Y298124D01*
D02*
G37*
G36*
X438703Y302957D02*
X433581Y297835D01*
X438703Y292712D01*
X440121Y294833D01*
X440718Y297835D01*
X440121Y300836D01*
X438703Y302957D01*
D02*
G37*
G36*
X138113D02*
X132991Y297835D01*
X138113Y292712D01*
X139530Y294833D01*
X140127Y297835D01*
X139530Y300836D01*
X138113Y302957D01*
D02*
G37*
G36*
X427044Y302957D02*
X425628Y300836D01*
X425030Y297835D01*
X425628Y294833D01*
X427044Y292712D01*
X432167Y297835D01*
X427044Y302957D01*
D02*
G37*
G36*
X126454D02*
X125037Y300836D01*
X124440Y297835D01*
X125037Y294833D01*
X126454Y292712D01*
X131576Y297835D01*
X126454Y302957D01*
D02*
G37*
G36*
X432874Y297128D02*
X427752Y292005D01*
X429872Y290588D01*
X432874Y289991D01*
X435876Y290588D01*
X437996Y292005D01*
X432874Y297128D01*
D02*
G37*
G36*
X132283D02*
X127161Y292005D01*
X129282Y290588D01*
X132283Y289991D01*
X135285Y290588D01*
X137406Y292005D01*
X132283Y297128D01*
D02*
G37*
G36*
X138386Y279952D02*
X136915Y279343D01*
X138386Y277872D01*
X139857Y279343D01*
X138386Y279952D01*
D02*
G37*
G36*
X140564Y278636D02*
X139093Y277165D01*
X140564Y275695D01*
X141173Y277165D01*
X140564Y278636D01*
D02*
G37*
G36*
X136208D02*
X135599Y277165D01*
X136208Y275695D01*
X137679Y277165D01*
X136208Y278636D01*
D02*
G37*
G36*
X138386Y276458D02*
X136915Y274988D01*
X138386Y274378D01*
X139857Y274988D01*
X138386Y276458D01*
D02*
G37*
G36*
X392126Y263811D02*
X390655Y263201D01*
X392126Y261731D01*
X393597Y263201D01*
X392126Y263811D01*
D02*
G37*
G36*
X368504D02*
X367033Y263201D01*
X368504Y261731D01*
X369975Y263201D01*
X368504Y263811D01*
D02*
G37*
G36*
X344882D02*
X343411Y263201D01*
X344882Y261731D01*
X346353Y263201D01*
X344882Y263811D01*
D02*
G37*
G36*
X439370Y263220D02*
X437899Y262611D01*
X439370Y261140D01*
X440841Y262611D01*
X439370Y263220D01*
D02*
G37*
G36*
X415748Y263220D02*
X414277Y262611D01*
X415748Y261140D01*
X417219Y262611D01*
X415748Y263220D01*
D02*
G37*
G36*
X394304Y262494D02*
X392833Y261024D01*
X394304Y259553D01*
X394913Y261024D01*
X394304Y262494D01*
D02*
G37*
G36*
X370682D02*
X369211Y261024D01*
X370682Y259553D01*
X371291Y261024D01*
X370682Y262494D01*
D02*
G37*
G36*
X347060D02*
X345589Y261024D01*
X347060Y259553D01*
X347669Y261024D01*
X347060Y262494D01*
D02*
G37*
G36*
X389948D02*
X389339Y261024D01*
X389948Y259553D01*
X391419Y261024D01*
X389948Y262494D01*
D02*
G37*
G36*
X366326D02*
X365717Y261024D01*
X366326Y259553D01*
X367797Y261024D01*
X366326Y262494D01*
D02*
G37*
G36*
X342704D02*
X342095Y261024D01*
X342704Y259553D01*
X344175Y261024D01*
X342704Y262494D01*
D02*
G37*
G36*
X441548Y261904D02*
X440077Y260433D01*
X441548Y258962D01*
X442157Y260433D01*
X441548Y261904D01*
D02*
G37*
G36*
X437192D02*
X436583Y260433D01*
X437192Y258962D01*
X438663Y260433D01*
X437192Y261904D01*
D02*
G37*
G36*
X417926Y261904D02*
X416455Y260433D01*
X417926Y258962D01*
X418535Y260433D01*
X417926Y261904D01*
D02*
G37*
G36*
X413570D02*
X412961Y260433D01*
X413570Y258962D01*
X415041Y260433D01*
X413570Y261904D01*
D02*
G37*
G36*
X392126Y260316D02*
X390655Y258846D01*
X392126Y258237D01*
X393597Y258846D01*
X392126Y260316D01*
D02*
G37*
G36*
X368504D02*
X367033Y258846D01*
X368504Y258237D01*
X369975Y258846D01*
X368504Y260316D01*
D02*
G37*
G36*
X344882D02*
X343411Y258846D01*
X344882Y258237D01*
X346353Y258846D01*
X344882Y260316D01*
D02*
G37*
G36*
X439370Y259726D02*
X437899Y258255D01*
X439370Y257646D01*
X440841Y258255D01*
X439370Y259726D01*
D02*
G37*
G36*
X415748Y259726D02*
X414277Y258255D01*
X415748Y257646D01*
X417219Y258255D01*
X415748Y259726D01*
D02*
G37*
G36*
X117953Y258838D02*
X115850Y257967D01*
X117953Y255865D01*
X120055Y257967D01*
X117953Y258838D01*
D02*
G37*
G36*
X115143Y257260D02*
X114273Y255157D01*
X115143Y253055D01*
X117246Y255157D01*
X115143Y257260D01*
D02*
G37*
G36*
X120762D02*
X118660Y255157D01*
X120762Y253055D01*
X121633Y255157D01*
X120762Y257260D01*
D02*
G37*
G36*
X117953Y254450D02*
X115850Y252348D01*
X117953Y251477D01*
X120055Y252348D01*
X117953Y254450D01*
D02*
G37*
G36*
X174606Y295946D02*
X173136Y294476D01*
X174331Y293981D01*
X174231Y293481D01*
X162008D01*
X160632Y292911D01*
X143332Y275611D01*
X143307Y275622D01*
X141336Y274805D01*
X140520Y272835D01*
X141336Y270864D01*
X143307Y270048D01*
X145278Y270864D01*
X146094Y272835D01*
X146083Y272860D01*
X162814Y289590D01*
X197226D01*
X239176Y247640D01*
X240406Y247130D01*
X240307Y246630D01*
X237617D01*
X196672Y287576D01*
X195296Y288145D01*
X166121D01*
X164746Y287576D01*
X143332Y266162D01*
X143307Y266173D01*
X141336Y265356D01*
X140520Y263386D01*
X141336Y261415D01*
X143307Y260599D01*
X145278Y261415D01*
X146094Y263386D01*
X146083Y263411D01*
X166927Y284255D01*
X194490D01*
X235436Y243309D01*
X236811Y242740D01*
X289352D01*
X326380Y205711D01*
X327756Y205141D01*
X350972D01*
X350982Y205116D01*
X352953Y204300D01*
X354923Y205116D01*
X355740Y207087D01*
X354923Y209057D01*
X354156Y209375D01*
X354253Y209866D01*
X378924D01*
X378935Y209840D01*
X380906Y209024D01*
X382876Y209840D01*
X383693Y211811D01*
X382876Y213782D01*
X382108Y214100D01*
X382206Y214590D01*
X383840D01*
X387622Y210808D01*
Y206121D01*
X368289Y186788D01*
X328162D01*
X328152Y186813D01*
X326181Y187629D01*
X324210Y186813D01*
X323394Y184843D01*
X324012Y183351D01*
X323678Y182851D01*
X247656D01*
X230745Y199762D01*
X230842Y200253D01*
X232239Y200831D01*
X233118Y202953D01*
X232239Y205074D01*
X230118Y205953D01*
X227997Y205074D01*
X227418Y203677D01*
X226928Y203579D01*
X223205Y207302D01*
Y247835D01*
X222850Y248692D01*
X223274Y248975D01*
X234451Y237798D01*
X235827Y237228D01*
X286793D01*
X321285Y202735D01*
X321848Y201376D01*
X323819Y200559D01*
X325790Y201376D01*
X326606Y203346D01*
X325790Y205317D01*
X323819Y206133D01*
X323515Y206008D01*
X288974Y240549D01*
X287598Y241119D01*
X236632D01*
X195076Y282675D01*
X193701Y283244D01*
X168898D01*
X167522Y282675D01*
X142430Y257582D01*
X142126Y257708D01*
X140155Y256892D01*
X139339Y254921D01*
X140155Y252951D01*
X142126Y252134D01*
X144097Y252951D01*
X144660Y254310D01*
X169703Y279354D01*
X192895D01*
X197400Y274849D01*
X197117Y274425D01*
X196260Y274780D01*
X179528D01*
X178152Y274210D01*
X166931Y262990D01*
X166362Y261614D01*
Y252283D01*
X165871Y252185D01*
X165750Y252478D01*
X163779Y253294D01*
X161809Y252478D01*
X160993Y250507D01*
X161809Y248536D01*
X163779Y247720D01*
X165750Y248536D01*
X165871Y248829D01*
X166362Y248731D01*
Y248210D01*
X165717Y246654D01*
X166533Y244683D01*
X168504Y243867D01*
X169604Y244322D01*
X169888Y243899D01*
X164964Y238975D01*
X164474Y239073D01*
X163920Y240409D01*
X162750Y240894D01*
X162607Y241422D01*
X162795Y241701D01*
X164766Y242517D01*
X165582Y244488D01*
X164766Y246459D01*
X162795Y247275D01*
X160825Y246459D01*
X160008Y244488D01*
X160023Y244452D01*
X159611Y244040D01*
X159120Y244137D01*
X158664Y245239D01*
X156693Y246056D01*
X154722Y245239D01*
X153906Y243269D01*
X154722Y241298D01*
X155825Y240842D01*
X155922Y240351D01*
X151364Y235793D01*
X148636D01*
X147533Y236896D01*
X146853Y238539D01*
X144882Y239355D01*
X142911Y238539D01*
X142095Y236568D01*
X142911Y234597D01*
X144882Y233781D01*
X145090Y233867D01*
X146354Y232603D01*
X146195Y232103D01*
X130827D01*
X130555Y232760D01*
X127953Y233838D01*
X125350Y232760D01*
X124273Y230157D01*
X125350Y227555D01*
X126065Y227259D01*
X125967Y226769D01*
X123029D01*
X119898Y229900D01*
Y232283D01*
X120555Y232555D01*
X121633Y235157D01*
X120555Y237760D01*
X117953Y238838D01*
X115350Y237760D01*
X114273Y235157D01*
X115350Y232555D01*
X116007Y232283D01*
Y229095D01*
X116577Y227719D01*
X120848Y223448D01*
X122224Y222878D01*
X160650D01*
X162026Y223448D01*
X183608Y245030D01*
X190014D01*
X198705Y236339D01*
X199289Y234928D01*
X198969Y234428D01*
X189655D01*
X189204Y234646D01*
X188388Y236616D01*
X186417Y237433D01*
X184447Y236616D01*
X183630Y234646D01*
X184447Y232675D01*
X186417Y231859D01*
X186443Y231869D01*
X187205Y231107D01*
X188580Y230537D01*
X198612D01*
X198878Y230037D01*
X198850Y229996D01*
X182700D01*
X180905Y230740D01*
X178935Y229923D01*
X178119Y227953D01*
X178935Y225982D01*
X180905Y225166D01*
X182876Y225982D01*
X182927Y226106D01*
X199584D01*
X201378Y225363D01*
X203263Y226144D01*
X203763Y225940D01*
Y222653D01*
X203273Y222556D01*
X203156Y222837D01*
X201186Y223653D01*
X199215Y222837D01*
X198879Y222024D01*
X182493D01*
X182483Y222049D01*
X180512Y222866D01*
X178541Y222049D01*
X177725Y220079D01*
X178219Y218886D01*
X177941Y218470D01*
X166517D01*
X165060Y219927D01*
X164589Y221065D01*
X162618Y221881D01*
X160647Y221065D01*
X159831Y219094D01*
X160647Y217124D01*
X162618Y216307D01*
X163035Y216480D01*
X164348Y215167D01*
X165716Y214601D01*
X173756D01*
X174034Y214185D01*
X173591Y213117D01*
X174407Y211146D01*
X176378Y210330D01*
X176403Y210340D01*
X187929Y198814D01*
X188581Y197242D01*
X190551Y196426D01*
X192522Y197242D01*
X193338Y199213D01*
X192522Y201183D01*
X190551Y201999D01*
X190335Y201910D01*
X179154Y213091D01*
X179165Y213117D01*
X178722Y214185D01*
X179000Y214601D01*
X188175D01*
X213475Y189301D01*
X213239Y188860D01*
X212795Y188948D01*
X210923Y188576D01*
X210061Y188000D01*
X209658Y188332D01*
X210332Y189961D01*
X209473Y192034D01*
X207047Y189607D01*
X204620Y187180D01*
X206693Y186321D01*
X208448Y187048D01*
X208765Y186662D01*
X208275Y185928D01*
X207902Y184055D01*
X208050Y183311D01*
X176739Y152001D01*
X175911Y150000D01*
Y131881D01*
X162017Y117987D01*
X120109D01*
X113531Y124565D01*
X112681Y126618D01*
X110079Y127696D01*
X107476Y126618D01*
X106399Y124016D01*
X107476Y121414D01*
X109530Y120563D01*
X116936Y113157D01*
X118937Y112328D01*
X163189D01*
X165190Y113157D01*
X180741Y128708D01*
X181570Y130709D01*
Y148828D01*
X212052Y179310D01*
X212795Y179162D01*
X214668Y179534D01*
X216255Y180595D01*
X217316Y182183D01*
X217447Y182842D01*
X217947Y182793D01*
Y140959D01*
X214794Y137806D01*
X214228Y136438D01*
Y133889D01*
X213737Y133791D01*
X213384Y134644D01*
X210630Y135785D01*
X207876Y134644D01*
X206735Y131890D01*
Y124803D01*
X207876Y122049D01*
X210630Y120908D01*
X213384Y122049D01*
X213737Y122902D01*
X214228Y122804D01*
Y120058D01*
X214794Y118690D01*
X216470Y117015D01*
X216278Y116553D01*
X199369D01*
X197379Y115728D01*
X196628Y114978D01*
X195866Y115129D01*
X193994Y114757D01*
X192406Y113696D01*
X191345Y112109D01*
X190973Y110236D01*
X191345Y108364D01*
X192406Y106776D01*
X193994Y105716D01*
X195866Y105343D01*
X197739Y105716D01*
X199326Y106776D01*
X200387Y108364D01*
X200759Y110236D01*
X200699Y110538D01*
X201017Y110924D01*
X391101D01*
X393091Y111749D01*
X397187Y115845D01*
X398011Y117835D01*
Y124651D01*
X399876D01*
Y134010D01*
X390517D01*
Y124651D01*
X392383D01*
Y119000D01*
X389935Y116553D01*
X299532D01*
X299236Y117053D01*
X299439Y117543D01*
X347835D01*
X347835Y117543D01*
X349210Y118113D01*
X372242Y141144D01*
X372812Y142520D01*
X372812Y142520D01*
Y161396D01*
X373817Y161813D01*
X374958Y164567D01*
Y171653D01*
X374311Y173215D01*
X374735Y173498D01*
X378546Y169687D01*
X379921Y169118D01*
X434037D01*
X440771Y162383D01*
Y161036D01*
X440746Y161026D01*
X439930Y159055D01*
X440746Y157085D01*
X442717Y156268D01*
X444687Y157085D01*
X445504Y159055D01*
X444687Y161026D01*
X444662Y161036D01*
Y163189D01*
X444092Y164565D01*
X436218Y172439D01*
X434842Y173008D01*
X380727D01*
X371454Y182281D01*
X370184Y182807D01*
X370118Y183192D01*
X370134Y183328D01*
X370470Y183467D01*
X390056Y203052D01*
X390517Y202861D01*
Y194651D01*
X399876D01*
Y204010D01*
X391422D01*
X391144Y204426D01*
X391512Y205315D01*
Y211614D01*
X390943Y212990D01*
X386021Y217911D01*
X384646Y218481D01*
X334467D01*
X299210Y253738D01*
X297835Y254308D01*
X268129D01*
X262816Y259620D01*
X262826Y259646D01*
X262010Y261616D01*
X260039Y262433D01*
X258069Y261616D01*
X257252Y259646D01*
X258069Y257675D01*
X260039Y256859D01*
X260065Y256869D01*
X265473Y251461D01*
X265266Y250961D01*
X241357D01*
X199407Y292911D01*
X198031Y293481D01*
X174981D01*
X174882Y293981D01*
X176077Y294476D01*
X174606Y295946D01*
D02*
G37*
G36*
X127953Y253838D02*
X125350Y252760D01*
X124273Y250157D01*
X125350Y247555D01*
X127953Y246477D01*
X130555Y247555D01*
X131633Y250157D01*
X130555Y252760D01*
X127953Y253838D01*
D02*
G37*
G36*
X117953Y248838D02*
X115350Y247760D01*
X114273Y245158D01*
X115350Y242555D01*
X117953Y241477D01*
X120555Y242555D01*
X121633Y245158D01*
X120555Y247760D01*
X117953Y248838D01*
D02*
G37*
G36*
X127953Y243838D02*
X125850Y242967D01*
X127953Y240865D01*
X130055Y242967D01*
X127953Y243838D01*
D02*
G37*
G36*
X125143Y242260D02*
X124273Y240158D01*
X125143Y238055D01*
X127246Y240158D01*
X125143Y242260D01*
D02*
G37*
G36*
X130762D02*
X128660Y240158D01*
X130762Y238055D01*
X131633Y240158D01*
X130762Y242260D01*
D02*
G37*
G36*
X127953Y239450D02*
X125850Y237348D01*
X127953Y236477D01*
X130055Y237348D01*
X127953Y239450D01*
D02*
G37*
G36*
X231299Y229576D02*
X229120Y228673D01*
X231299Y226495D01*
X233478Y228673D01*
X231299Y229576D01*
D02*
G37*
G36*
X242520D02*
X240341Y228673D01*
X242520Y226495D01*
X244699Y228673D01*
X242520Y229576D01*
D02*
G37*
G36*
X245406Y227966D02*
X243227Y225787D01*
X245406Y223609D01*
X246308Y225787D01*
X245406Y227966D01*
D02*
G37*
G36*
X234185D02*
X232006Y225787D01*
X234185Y223609D01*
X235088Y225787D01*
X234185Y227966D01*
D02*
G37*
G36*
X239634D02*
X238731Y225787D01*
X239634Y223609D01*
X241813Y225787D01*
X239634Y227966D01*
D02*
G37*
G36*
X228413D02*
X227511Y225787D01*
X228413Y223609D01*
X230592Y225787D01*
X228413Y227966D01*
D02*
G37*
G36*
X242520Y225080D02*
X240341Y222902D01*
X242520Y221999D01*
X244699Y222902D01*
X242520Y225080D01*
D02*
G37*
G36*
X231299D02*
X229120Y222902D01*
X231299Y221999D01*
X233478Y222902D01*
X231299Y225080D01*
D02*
G37*
G36*
X145472Y221291D02*
X144002Y220682D01*
X145472Y219211D01*
X146943Y220682D01*
X145472Y221291D01*
D02*
G37*
G36*
X237008Y222292D02*
X234829Y221390D01*
X237008Y219211D01*
X239187Y221390D01*
X237008Y222292D01*
D02*
G37*
G36*
X147650Y219975D02*
X146179Y218504D01*
X147650Y217033D01*
X148259Y218504D01*
X147650Y219975D01*
D02*
G37*
G36*
X143295D02*
X142685Y218504D01*
X143295Y217033D01*
X144765Y218504D01*
X143295Y219975D01*
D02*
G37*
G36*
X239894Y220683D02*
X237715Y218504D01*
X239894Y216325D01*
X240796Y218504D01*
X239894Y220683D01*
D02*
G37*
G36*
X234122D02*
X233220Y218504D01*
X234122Y216325D01*
X236301Y218504D01*
X234122Y220683D01*
D02*
G37*
G36*
X145472Y217797D02*
X144002Y216326D01*
X145472Y215717D01*
X146943Y216326D01*
X145472Y217797D01*
D02*
G37*
G36*
X237008D02*
X234829Y215618D01*
X237008Y214716D01*
X239187Y215618D01*
X237008Y217797D01*
D02*
G37*
G36*
X242520Y214812D02*
X240341Y213910D01*
X242520Y211731D01*
X244699Y213910D01*
X242520Y214812D01*
D02*
G37*
G36*
X231299D02*
X229120Y213910D01*
X231299Y211731D01*
X233478Y213910D01*
X231299Y214812D01*
D02*
G37*
G36*
X245406Y213202D02*
X243227Y211024D01*
X245406Y208845D01*
X246308Y211024D01*
X245406Y213202D01*
D02*
G37*
G36*
X234185D02*
X232006Y211024D01*
X234185Y208845D01*
X235088Y211024D01*
X234185Y213202D01*
D02*
G37*
G36*
X239634D02*
X238731Y211024D01*
X239634Y208845D01*
X241813Y211024D01*
X239634Y213202D01*
D02*
G37*
G36*
X228413D02*
X227511Y211024D01*
X228413Y208845D01*
X230592Y211024D01*
X228413Y213202D01*
D02*
G37*
G36*
X242520Y210316D02*
X240341Y208138D01*
X242520Y207235D01*
X244699Y208138D01*
X242520Y210316D01*
D02*
G37*
G36*
X231299D02*
X229120Y208138D01*
X231299Y207235D01*
X233478Y208138D01*
X231299Y210316D01*
D02*
G37*
G36*
X244094Y205953D02*
X241973Y205074D01*
X241094Y202953D01*
X241973Y200831D01*
X244094Y199953D01*
X246216Y200831D01*
X247094Y202953D01*
X246216Y205074D01*
X244094Y205953D01*
D02*
G37*
G36*
X236771D02*
X234650Y205074D01*
X233771Y202953D01*
X234650Y200831D01*
X236771Y199953D01*
X238893Y200831D01*
X239772Y202953D01*
X238893Y205074D01*
X236771Y205953D01*
D02*
G37*
G36*
X429876Y204010D02*
X420517D01*
Y194651D01*
X429876D01*
Y204010D01*
D02*
G37*
G36*
X286221Y193141D02*
X284750Y192532D01*
X286221Y191061D01*
X287691Y192532D01*
X286221Y193141D01*
D02*
G37*
G36*
X276378D02*
X274907Y192532D01*
X276378Y191061D01*
X277849Y192532D01*
X276378Y193141D01*
D02*
G37*
G36*
X206693Y193600D02*
X204620Y192741D01*
X206693Y190668D01*
X208766Y192741D01*
X206693Y193600D01*
D02*
G37*
G36*
X288398Y191825D02*
X286928Y190354D01*
X288398Y188884D01*
X289007Y190354D01*
X288398Y191825D01*
D02*
G37*
G36*
X278556D02*
X277085Y190354D01*
X278556Y188884D01*
X279165Y190354D01*
X278556Y191825D01*
D02*
G37*
G36*
X284043D02*
X283434Y190354D01*
X284043Y188884D01*
X285513Y190354D01*
X284043Y191825D01*
D02*
G37*
G36*
X274200D02*
X273591Y190354D01*
X274200Y188884D01*
X275671Y190354D01*
X274200Y191825D01*
D02*
G37*
G36*
X203912Y192034D02*
X203054Y189961D01*
X203912Y187887D01*
X205986Y189961D01*
X203912Y192034D01*
D02*
G37*
G36*
X312402Y193338D02*
X310431Y192522D01*
X309615Y190551D01*
X310431Y188581D01*
X312402Y187764D01*
X314196Y188507D01*
X338726D01*
X338777Y188384D01*
X340748Y187567D01*
X342719Y188384D01*
X343535Y190354D01*
X342719Y192325D01*
X340748Y193141D01*
X338954Y192398D01*
X314423D01*
X314372Y192522D01*
X312402Y193338D01*
D02*
G37*
G36*
X286221Y189647D02*
X284750Y188177D01*
X286221Y187567D01*
X287691Y188177D01*
X286221Y189647D01*
D02*
G37*
G36*
X276378D02*
X274907Y188177D01*
X276378Y187567D01*
X277849Y188177D01*
X276378Y189647D01*
D02*
G37*
G36*
X429876Y184010D02*
X420517D01*
Y174651D01*
X429876D01*
Y184010D01*
D02*
G37*
G36*
X399876D02*
X390517D01*
Y174651D01*
X399876D01*
Y184010D01*
D02*
G37*
G36*
X134843Y172019D02*
X132970Y171647D01*
X131806Y170869D01*
X134843Y167833D01*
X137879Y170869D01*
X136715Y171647D01*
X134843Y172019D01*
D02*
G37*
G36*
X138586Y170162D02*
X135550Y167126D01*
X138586Y164090D01*
X139363Y165253D01*
X139736Y167126D01*
X139363Y168999D01*
X138586Y170162D01*
D02*
G37*
G36*
X131099Y170162D02*
X130322Y168999D01*
X129949Y167126D01*
X130322Y165253D01*
X131099Y164090D01*
X134135Y167126D01*
X131099Y170162D01*
D02*
G37*
G36*
X134843Y166419D02*
X131806Y163383D01*
X132970Y162605D01*
X134843Y162233D01*
X136715Y162605D01*
X137879Y163383D01*
X134843Y166419D01*
D02*
G37*
G36*
X429876Y164010D02*
X420517D01*
Y154651D01*
X429876D01*
Y164010D01*
D02*
G37*
G36*
X399876D02*
X390517D01*
Y154651D01*
X399876D01*
Y164010D01*
D02*
G37*
G36*
X156449Y151091D02*
X154561Y150716D01*
X152961Y149646D01*
X151930Y148103D01*
X141363D01*
Y148186D01*
X136760Y147271D01*
X132858Y144663D01*
X132916Y144605D01*
X125736Y137424D01*
X125079Y137696D01*
X122476Y136618D01*
X121399Y134016D01*
X122476Y131413D01*
X125079Y130336D01*
X127681Y131413D01*
X128759Y134016D01*
X128487Y134673D01*
X135668Y141853D01*
X135733Y141788D01*
X138316Y143514D01*
X141363Y144120D01*
Y144213D01*
X151930D01*
X152961Y142670D01*
X154561Y141600D01*
X155133Y141487D01*
Y140987D01*
X154561Y140873D01*
X152961Y139803D01*
X151891Y138203D01*
X151778Y137631D01*
X151277D01*
X151164Y138203D01*
X150378Y139380D01*
X146959Y135961D01*
X143542Y132543D01*
X144718Y131757D01*
X146606Y131382D01*
X148418Y131742D01*
X148594Y131562D01*
X148713Y131330D01*
X148065Y130682D01*
X148000Y130748D01*
X145417Y129022D01*
X142370Y128416D01*
Y128323D01*
X126859D01*
Y128416D01*
X123812Y129022D01*
X121229Y130748D01*
X121163Y130682D01*
X118487Y133359D01*
X118759Y134016D01*
X117681Y136618D01*
X115079Y137696D01*
X112477Y136618D01*
X111399Y134016D01*
X112477Y131413D01*
X115079Y130336D01*
X115736Y130608D01*
X118412Y127931D01*
X118353Y127873D01*
X118736Y127617D01*
X118687Y127119D01*
X117976Y126825D01*
X120432Y124369D01*
X122888Y121914D01*
X123759Y124016D01*
X123533Y124562D01*
X123850Y124948D01*
X126859Y124350D01*
Y124433D01*
X142370D01*
Y124350D01*
X146973Y125265D01*
X150875Y127873D01*
X150816Y127931D01*
X151464Y128579D01*
X151696Y128460D01*
X151876Y128284D01*
X151516Y126472D01*
X151891Y124584D01*
X152961Y122984D01*
X154561Y121914D01*
X156449Y121539D01*
X158337Y121914D01*
X159937Y122984D01*
X161007Y124584D01*
X161382Y126472D01*
X161007Y128360D01*
X159937Y129960D01*
X158337Y131030D01*
X157765Y131143D01*
Y131643D01*
X158337Y131757D01*
X159937Y132827D01*
X161007Y134427D01*
X161120Y134999D01*
X161620D01*
X161734Y134427D01*
X162520Y133250D01*
X165585Y136315D01*
X162520Y139380D01*
X161734Y138203D01*
X161620Y137631D01*
X161120D01*
X161007Y138203D01*
X159937Y139803D01*
X158337Y140873D01*
X157765Y140987D01*
Y141487D01*
X158337Y141600D01*
X159937Y142670D01*
X161007Y144270D01*
X161382Y146158D01*
X161007Y148046D01*
X159937Y149646D01*
X158337Y150716D01*
X156449Y151091D01*
D02*
G37*
G36*
X380118Y141763D02*
X378647Y141154D01*
X380118Y139683D01*
X381589Y141154D01*
X380118Y141763D01*
D02*
G37*
G36*
X382296Y140447D02*
X380825Y138976D01*
X382296Y137506D01*
X382905Y138976D01*
X382296Y140447D01*
D02*
G37*
G36*
X377940D02*
X377331Y138976D01*
X377940Y137506D01*
X379411Y138976D01*
X377940Y140447D01*
D02*
G37*
G36*
X166292Y141248D02*
X164404Y140873D01*
X163227Y140087D01*
X166292Y137022D01*
X169357Y140087D01*
X168180Y140873D01*
X166292Y141248D01*
D02*
G37*
G36*
X146606D02*
X144718Y140873D01*
X143542Y140087D01*
X146606Y137022D01*
X149671Y140087D01*
X148494Y140873D01*
X146606Y141248D01*
D02*
G37*
G36*
X380118Y138269D02*
X378647Y136799D01*
X380118Y136189D01*
X381589Y136799D01*
X380118Y138269D01*
D02*
G37*
G36*
X170064Y139380D02*
X166999Y136315D01*
X170064Y133250D01*
X170850Y134427D01*
X171225Y136315D01*
X170850Y138203D01*
X170064Y139380D01*
D02*
G37*
G36*
X142834D02*
X142048Y138203D01*
X141673Y136315D01*
X142048Y134427D01*
X142834Y133250D01*
X145899Y136315D01*
X142834Y139380D01*
D02*
G37*
G36*
X166292Y135608D02*
X163227Y132543D01*
X164404Y131757D01*
X166292Y131382D01*
X168180Y131757D01*
X169357Y132543D01*
X166292Y135608D01*
D02*
G37*
G36*
X435236Y130543D02*
X433766Y129934D01*
X435236Y128463D01*
X436707Y129934D01*
X435236Y130543D01*
D02*
G37*
G36*
X437414Y129227D02*
X435943Y127756D01*
X437414Y126285D01*
X438023Y127756D01*
X437414Y129227D01*
D02*
G37*
G36*
X433059D02*
X432449Y127756D01*
X433059Y126285D01*
X434529Y127756D01*
X433059Y129227D01*
D02*
G37*
G36*
X435236Y127049D02*
X433766Y125578D01*
X435236Y124969D01*
X436707Y125578D01*
X435236Y127049D01*
D02*
G37*
G36*
X429876Y134010D02*
X420517D01*
Y124651D01*
X429876D01*
Y134010D01*
D02*
G37*
G36*
X117269Y126118D02*
X116399Y124016D01*
X117269Y121914D01*
X119372Y124016D01*
X117269Y126118D01*
D02*
G37*
G36*
X200787Y135785D02*
X198033Y134644D01*
X196892Y131890D01*
Y124803D01*
X198033Y122049D01*
X200787Y120908D01*
X203541Y122049D01*
X204682Y124803D01*
Y131890D01*
X203541Y134644D01*
X200787Y135785D01*
D02*
G37*
G36*
X120079Y123309D02*
X117976Y121206D01*
X120079Y120336D01*
X122181Y121206D01*
X120079Y123309D01*
D02*
G37*
%LPD*%
G36*
X196792Y244748D02*
X196995Y244259D01*
X196571Y243975D01*
X192517Y248029D01*
X191142Y248599D01*
X190365Y248277D01*
X183257D01*
X182480Y248599D01*
X181105Y248029D01*
X159845Y226769D01*
X129938D01*
X129841Y227259D01*
X130555Y227555D01*
X130827Y228212D01*
X158898D01*
X160273Y228782D01*
X184270Y252779D01*
X188761D01*
X196792Y244748D01*
D02*
G37*
G36*
X203763Y219079D02*
Y217144D01*
X201403Y214784D01*
X201378Y214795D01*
X199407Y213979D01*
X198591Y212008D01*
X199407Y210037D01*
X201378Y209221D01*
X203349Y210037D01*
X204165Y212008D01*
X204154Y212033D01*
X206254Y214133D01*
X206716Y213942D01*
Y202185D01*
X206254Y201994D01*
X190614Y217633D01*
X190822Y218133D01*
X200398D01*
X200727Y218269D01*
X201186Y218079D01*
X203156Y218896D01*
X203273Y219177D01*
X203763Y219079D01*
D02*
G37*
G36*
X332286Y215160D02*
X333661Y214590D01*
X379605D01*
X379703Y214100D01*
X378935Y213782D01*
X378924Y213756D01*
X332499D01*
X296338Y249917D01*
X296545Y250417D01*
X297029D01*
X332286Y215160D01*
D02*
G37*
G36*
X330317Y210436D02*
X331693Y209866D01*
X351652D01*
X351750Y209375D01*
X350982Y209057D01*
X350972Y209032D01*
X328562D01*
X291533Y246061D01*
X290302Y246570D01*
X290402Y247070D01*
X293682D01*
X330317Y210436D01*
D02*
G37*
G36*
X219315Y247029D02*
Y206496D01*
X219884Y205120D01*
X245475Y179530D01*
X246850Y178960D01*
X369273D01*
X372907Y175326D01*
X372624Y174902D01*
X371063Y175549D01*
X368309Y174408D01*
X367168Y171653D01*
Y164567D01*
X368309Y161813D01*
X368921Y161559D01*
Y143325D01*
X347029Y121433D01*
X299439D01*
X299135Y122167D01*
X296457Y123277D01*
X293778Y122167D01*
X292668Y119488D01*
X293677Y117053D01*
X293381Y116553D01*
X287659D01*
X287467Y117015D01*
X295856Y125404D01*
X296423Y126772D01*
Y131282D01*
X296459Y131297D01*
X297275Y133268D01*
X296459Y135238D01*
X294488Y136055D01*
X292517Y135238D01*
X291701Y133268D01*
X292517Y131297D01*
X292553Y131282D01*
Y127573D01*
X284041Y119061D01*
X219896D01*
X218097Y120860D01*
Y121442D01*
X218513Y121720D01*
X220472Y120908D01*
X223226Y122049D01*
X224367Y124803D01*
Y131890D01*
X223226Y134644D01*
X220472Y135785D01*
X218637Y135025D01*
X218194Y135308D01*
X218168Y135707D01*
X221177Y138716D01*
X221541Y138641D01*
X221683Y138569D01*
X222247Y137207D01*
X226755Y132699D01*
X226420Y131890D01*
Y124803D01*
X227561Y122049D01*
X230315Y120908D01*
X233069Y122049D01*
X234210Y124803D01*
Y131890D01*
X233289Y134114D01*
X233713Y134397D01*
X236263Y131847D01*
Y124803D01*
X237403Y122049D01*
X240158Y120908D01*
X242912Y122049D01*
X244052Y124803D01*
Y131890D01*
X242912Y134644D01*
X240158Y135785D01*
X238509Y135102D01*
X229898Y143714D01*
Y149165D01*
X230398Y149265D01*
X230908Y148034D01*
X246382Y132559D01*
X246105Y131890D01*
Y124803D01*
X247246Y122049D01*
X250000Y120908D01*
X252754Y122049D01*
X253895Y124803D01*
Y131890D01*
X252754Y134644D01*
X250000Y135785D01*
X249052Y135392D01*
X234229Y150215D01*
Y188779D01*
X233659Y190155D01*
X218678Y205136D01*
Y245669D01*
X218108Y247045D01*
X194763Y270389D01*
X194878Y270889D01*
X195454D01*
X219315Y247029D01*
D02*
G37*
%LPC*%
G36*
X286221Y175818D02*
X284750Y175209D01*
X286221Y173739D01*
X287691Y175209D01*
X286221Y175818D01*
D02*
G37*
G36*
X276378D02*
X274907Y175209D01*
X276378Y173739D01*
X277849Y175209D01*
X276378Y175818D01*
D02*
G37*
G36*
X302165Y175549D02*
X299911Y174615D01*
X302165Y172361D01*
X304419Y174615D01*
X302165Y175549D01*
D02*
G37*
G36*
X288398Y174502D02*
X286928Y173031D01*
X288398Y171561D01*
X289007Y173031D01*
X288398Y174502D01*
D02*
G37*
G36*
X278556D02*
X277085Y173031D01*
X278556Y171561D01*
X279165Y173031D01*
X278556Y174502D01*
D02*
G37*
G36*
X284043D02*
X283434Y173031D01*
X284043Y171561D01*
X285513Y173031D01*
X284043Y174502D01*
D02*
G37*
G36*
X274200D02*
X273591Y173031D01*
X274200Y171561D01*
X275671Y173031D01*
X274200Y174502D01*
D02*
G37*
G36*
X286221Y172324D02*
X284750Y170854D01*
X286221Y170245D01*
X287691Y170854D01*
X286221Y172324D01*
D02*
G37*
G36*
X276378D02*
X274907Y170854D01*
X276378Y170245D01*
X277849Y170854D01*
X276378Y172324D01*
D02*
G37*
G36*
X299204Y173908D02*
X298270Y171653D01*
Y164567D01*
X299204Y162313D01*
X301812Y164920D01*
X302165Y164567D01*
X302519Y164920D01*
X305127Y162313D01*
X306060Y164567D01*
Y171653D01*
X305127Y173908D01*
X302519Y171300D01*
X302165Y171653D01*
X301812Y171300D01*
X299204Y173908D01*
D02*
G37*
G36*
X361221Y175549D02*
X358466Y174408D01*
X357326Y171653D01*
Y164567D01*
X358466Y161813D01*
X361221Y160672D01*
X363975Y161813D01*
X365115Y164567D01*
Y171653D01*
X363975Y174408D01*
X361221Y175549D01*
D02*
G37*
G36*
X351378D02*
X348624Y174408D01*
X347483Y171653D01*
Y164567D01*
X348624Y161813D01*
X351378Y160672D01*
X354132Y161813D01*
X355273Y164567D01*
Y171653D01*
X354132Y174408D01*
X351378Y175549D01*
D02*
G37*
G36*
X341535D02*
X338781Y174408D01*
X337641Y171653D01*
Y164567D01*
X338781Y161813D01*
X341535Y160672D01*
X344289Y161813D01*
X345430Y164567D01*
Y171653D01*
X344289Y174408D01*
X341535Y175549D01*
D02*
G37*
G36*
X331693D02*
X328939Y174408D01*
X327798Y171653D01*
Y164567D01*
X328939Y161813D01*
X331693Y160672D01*
X334447Y161813D01*
X335588Y164567D01*
Y171653D01*
X334447Y174408D01*
X331693Y175549D01*
D02*
G37*
G36*
X321850D02*
X319096Y174408D01*
X317955Y171653D01*
Y164567D01*
X319096Y161813D01*
X321850Y160672D01*
X324605Y161813D01*
X325745Y164567D01*
Y171653D01*
X324605Y174408D01*
X321850Y175549D01*
D02*
G37*
G36*
X312008D02*
X309254Y174408D01*
X308113Y171653D01*
Y164567D01*
X309254Y161813D01*
X312008Y160672D01*
X314762Y161813D01*
X315903Y164567D01*
Y171653D01*
X314762Y174408D01*
X312008Y175549D01*
D02*
G37*
G36*
X302165Y163860D02*
X299911Y161606D01*
X302165Y160672D01*
X304419Y161606D01*
X302165Y163860D01*
D02*
G37*
G36*
X281693Y153501D02*
X278939Y152360D01*
X277798Y149606D01*
X278939Y146852D01*
X281693Y145711D01*
X284447Y146852D01*
X285588Y149606D01*
X284447Y152360D01*
X281693Y153501D01*
D02*
G37*
G36*
X271260D02*
X268506Y152360D01*
X267365Y149606D01*
X268506Y146852D01*
X271260Y145711D01*
X274014Y146852D01*
X275155Y149606D01*
X274014Y152360D01*
X271260Y153501D01*
D02*
G37*
G36*
X260630D02*
X257876Y152360D01*
X256735Y149606D01*
X257876Y146852D01*
X260630Y145711D01*
X263384Y146852D01*
X264525Y149606D01*
X263384Y152360D01*
X260630Y153501D01*
D02*
G37*
G36*
X279528Y135785D02*
X277274Y134851D01*
X279528Y132597D01*
X281782Y134851D01*
X279528Y135785D01*
D02*
G37*
G36*
X269685D02*
X267431Y134851D01*
X269685Y132597D01*
X271939Y134851D01*
X269685Y135785D01*
D02*
G37*
G36*
X259842D02*
X257588Y134851D01*
X259842Y132597D01*
X262097Y134851D01*
X259842Y135785D01*
D02*
G37*
G36*
X276566Y134144D02*
X275633Y131890D01*
Y124803D01*
X276566Y122549D01*
X279174Y125157D01*
X279528Y124803D01*
X279881Y125157D01*
X282489Y122549D01*
X283422Y124803D01*
Y131890D01*
X282489Y134144D01*
X279881Y131536D01*
X279528Y131890D01*
X279174Y131536D01*
X276566Y134144D01*
D02*
G37*
G36*
X266724D02*
X265790Y131890D01*
Y124803D01*
X266724Y122549D01*
X269332Y125157D01*
X269685Y124803D01*
X270039Y125157D01*
X272646Y122549D01*
X273580Y124803D01*
Y131890D01*
X272646Y134144D01*
X270039Y131536D01*
X269685Y131890D01*
X269332Y131536D01*
X266724Y134144D01*
D02*
G37*
G36*
X256881D02*
X255948Y131890D01*
Y124803D01*
X256881Y122549D01*
X259489Y125157D01*
X259842Y124803D01*
X260196Y125157D01*
X262804Y122549D01*
X263737Y124803D01*
Y131890D01*
X262804Y134144D01*
X260196Y131536D01*
X259842Y131890D01*
X259489Y131536D01*
X256881Y134144D01*
D02*
G37*
G36*
X279528Y124096D02*
X277274Y121842D01*
X279528Y120908D01*
X281782Y121842D01*
X279528Y124096D01*
D02*
G37*
G36*
X269685D02*
X267431Y121842D01*
X269685Y120908D01*
X271939Y121842D01*
X269685Y124096D01*
D02*
G37*
G36*
X259842D02*
X257588Y121842D01*
X259842Y120908D01*
X262097Y121842D01*
X259842Y124096D01*
D02*
G37*
%LPD*%
D14*
X312402Y190551D02*
X312500Y190453D01*
X340650D02*
X340748Y190354D01*
X168504Y246654D02*
Y247638D01*
X168307Y247835D02*
X168504Y247638D01*
X201181Y236614D02*
X201378D01*
X182480Y246654D02*
X191142D01*
X179921Y256102D02*
Y256299D01*
X250000Y128347D02*
Y131693D01*
X238219Y132642D02*
X240158Y130703D01*
X179921Y256299D02*
X180118Y256496D01*
X230315Y128347D02*
Y131890D01*
X370866Y167913D02*
X371063Y168110D01*
D15*
X425197Y159331D02*
D03*
Y179331D02*
D03*
Y199331D02*
D03*
D69*
X141363Y146158D02*
G03*
X134292Y143229I0J-10000D01*
G01*
X119788Y129307D02*
G03*
X126859Y126378I7071J7071D01*
G01*
X142370D02*
G03*
X149441Y129307I0J10000D01*
G01*
X326181Y184843D02*
X369094D01*
X389567Y205315D01*
X312500Y190453D02*
X340650D01*
X246850Y180905D02*
X370079D01*
X221260Y206496D02*
X246850Y180905D01*
X370079D02*
X379921Y171063D01*
X389567Y205315D02*
Y211614D01*
X384646Y216535D02*
X389567Y211614D01*
X333661Y216535D02*
X384646D01*
X297835Y252362D02*
X333661Y216535D01*
X267323Y252362D02*
X297835D01*
X260039Y259646D02*
X267323Y252362D01*
X127953Y230157D02*
X158898D01*
X183465Y254724D01*
X162008Y291535D02*
X198031D01*
X143307Y272835D02*
X162008Y291535D01*
X198031D02*
X240551Y249016D01*
X227953Y142908D02*
X238219Y132642D01*
X227953Y142908D02*
Y187205D01*
X180512Y220079D02*
X200398D01*
X201186Y220866D01*
X149441Y129307D02*
X156449Y136315D01*
X141363Y146158D02*
X156449D01*
X125079Y134016D02*
X134292Y143229D01*
X115079Y134016D02*
X119788Y129307D01*
X126859Y126378D02*
X142370D01*
X176378Y213117D02*
X190282Y199213D01*
X190551D01*
X331693Y211811D02*
X380906D01*
X240551Y249016D02*
X294488D01*
X331693Y211811D01*
X201279Y228051D02*
X201378Y228150D01*
X181004Y228051D02*
X201279D01*
X180905Y227953D02*
X181004Y228051D01*
X186417Y234646D02*
X188580Y232483D01*
X203546D01*
X205709Y230320D01*
Y216339D02*
Y230320D01*
X201378Y212008D02*
X205709Y216339D01*
X190551Y260433D02*
X208661Y242323D01*
X185388Y260433D02*
X190551D01*
X208661Y200591D02*
Y242323D01*
X143307Y263386D02*
X166121Y286200D01*
X195296D01*
X236811Y244685D01*
X290158D01*
X327756Y207087D01*
X352953D01*
X287598Y239173D02*
X323425Y203346D01*
X323819D01*
X221260Y206496D02*
Y247835D01*
X196260Y272835D02*
X221260Y247835D01*
X179528Y272835D02*
X196260D01*
X142520Y254921D02*
X168898Y281299D01*
X193701D01*
X235827Y239173D01*
X287598D01*
X191142Y246654D02*
X201181Y236614D01*
X160650Y224824D02*
X182480Y246654D01*
X122224Y224824D02*
X160650D01*
X117953Y229095D02*
X122224Y224824D01*
X117953Y229095D02*
Y235157D01*
X189567Y254724D02*
X199134Y245158D01*
X183465Y254724D02*
X189567D01*
X434842Y171063D02*
X442717Y163189D01*
X379921Y171063D02*
X434842D01*
X442717Y159055D02*
Y163189D01*
X168307Y247835D02*
Y261614D01*
X179528Y272835D01*
X175000Y251575D02*
Y261221D01*
X182874Y269094D01*
X193307D01*
X216732Y245669D01*
Y204331D02*
Y245669D01*
Y204331D02*
X232283Y188779D01*
Y149409D02*
Y188779D01*
Y149409D02*
X250000Y131693D01*
X240158Y128347D02*
Y130703D01*
X208661Y200591D02*
X223622Y185630D01*
Y138583D02*
Y185630D01*
X180118Y256496D02*
Y260166D01*
X184322Y264370D01*
X192520D01*
X212598Y244291D01*
Y202559D02*
Y244291D01*
Y202559D02*
X227953Y187205D01*
X223622Y138583D02*
X230315Y131890D01*
D71*
X284842Y117126D02*
X294488Y126772D01*
Y133268D01*
X219882Y140157D02*
Y185630D01*
X188976Y216535D02*
X219882Y185630D01*
X165716Y216535D02*
X188976D01*
X219094Y117126D02*
X284842D01*
X216162Y120058D02*
X219094Y117126D01*
X216162Y120058D02*
Y136438D01*
X219882Y140157D01*
X163157Y219094D02*
X165716Y216535D01*
X162618Y219094D02*
X163157D01*
X145125Y236568D02*
X147835Y233858D01*
X144882Y236568D02*
X145125D01*
X147835Y233858D02*
X152165D01*
X162795Y244488D01*
D72*
X178740Y130709D02*
Y150000D01*
X163189Y115157D02*
X178740Y130709D01*
X118937Y115157D02*
X163189D01*
X110079Y124016D02*
X118937Y115157D01*
X178740Y150000D02*
X212795Y184055D01*
D73*
X370866Y142520D02*
Y167913D01*
X347835Y119488D02*
X370866Y142520D01*
X296457Y119488D02*
X347835D01*
D74*
X110079Y124016D02*
D03*
X115079Y134016D02*
D03*
X120079Y124016D02*
D03*
X125079Y134016D02*
D03*
X117953Y255157D02*
D03*
X127953Y250157D02*
D03*
X117953Y245158D02*
D03*
X127953Y240158D02*
D03*
X117953Y235157D02*
D03*
X127953Y230157D02*
D03*
D75*
X425197Y199331D02*
D03*
Y179331D02*
D03*
Y159331D02*
D03*
Y129331D02*
D03*
X395197Y199331D02*
D03*
Y179331D02*
D03*
Y159331D02*
D03*
D76*
Y129331D02*
D03*
D77*
X128398Y106000D02*
D03*
X184500D02*
D03*
D78*
X146606Y136315D02*
D03*
X156449Y126472D02*
D03*
X166292Y136315D02*
D03*
X156449Y146158D02*
D03*
Y136315D02*
D03*
D79*
X371063Y168110D02*
D03*
X361221D02*
D03*
X351378D02*
D03*
X321850D02*
D03*
X331693D02*
D03*
X341535D02*
D03*
X312008D02*
D03*
X302165D02*
D03*
X200787Y128347D02*
D03*
X210630D02*
D03*
X220472D02*
D03*
X250000D02*
D03*
X240158D02*
D03*
X230315D02*
D03*
X259842D02*
D03*
X269685D02*
D03*
X279528D02*
D03*
D80*
X326181Y184843D02*
D03*
X260039Y259646D02*
D03*
X392126Y261024D02*
D03*
X415748Y260433D02*
D03*
X435236Y127756D02*
D03*
X276378Y173031D02*
D03*
X286221D02*
D03*
Y190354D02*
D03*
X276378D02*
D03*
X294488Y133268D02*
D03*
X162618Y219094D02*
D03*
X144882Y236568D02*
D03*
X162795Y244488D02*
D03*
X174606Y296654D02*
D03*
X142126Y254921D02*
D03*
X190551Y199213D02*
D03*
X340748Y190354D02*
D03*
X312402Y190551D02*
D03*
X176378Y213117D02*
D03*
X180512Y220079D02*
D03*
X180905Y227953D02*
D03*
X138386Y277165D02*
D03*
X145472Y218504D02*
D03*
X380118Y138976D02*
D03*
X439370Y260433D02*
D03*
X368504Y261024D02*
D03*
X344882D02*
D03*
X312598Y299213D02*
D03*
X294685D02*
D03*
X186417Y234646D02*
D03*
X168504Y246654D02*
D03*
X163779Y250507D02*
D03*
X156693Y243269D02*
D03*
X161950Y238439D02*
D03*
X201378Y212008D02*
D03*
X143307Y272835D02*
D03*
X380906Y211811D02*
D03*
X143307Y263386D02*
D03*
X352953Y207087D02*
D03*
X323819Y203346D02*
D03*
X201186Y220866D02*
D03*
X201378Y228150D02*
D03*
Y236614D02*
D03*
X199409Y245158D02*
D03*
X179921Y256102D02*
D03*
X442717Y159055D02*
D03*
X175000Y251575D02*
D03*
X185388Y260433D02*
D03*
D81*
X206693Y189961D02*
D03*
D82*
X231299Y211024D02*
D03*
X237008Y218504D02*
D03*
X242520Y211024D02*
D03*
Y225787D02*
D03*
X231299D02*
D03*
X296457Y119488D02*
D03*
D83*
X281693Y149606D02*
D03*
X271260D02*
D03*
X260630D02*
D03*
D84*
X432874Y297835D02*
D03*
X132283D02*
D03*
D85*
X134843Y167126D02*
D03*
X212795Y184055D02*
D03*
X195866Y110236D02*
D03*
D86*
X244094Y202953D02*
D03*
X236771D02*
D03*
X230118D02*
D03*
D87*
X199369Y113739D02*
X391101D01*
X195866Y110236D02*
X199369Y113739D01*
X391101D02*
X395197Y117835D01*
Y129331D01*
M02*
